<?xml version="1.0" encoding="UTF-8"?>
<svg version="1.1" xmlns="http://www.w3.org/2000/svg" width="326" height="183">
<path d="M0 0 C107.58 0 215.16 0 326 0 C326 60.39 326 120.78 326 183 C218.42 183 110.84 183 0 183 C0 122.61 0 62.22 0 0 Z " fill="#130033" transform="translate(0,0)"/>
<path d="M0 0 C1 1 1 1 1.11352539 3.04125977 C1.10828857 3.91580811 1.10305176 4.79035645 1.09765625 5.69140625 C1.09443359 6.63564453 1.09121094 7.57988281 1.08789062 8.55273438 C1.07951172 9.54595703 1.07113281 10.53917969 1.0625 11.5625 C1.05798828 12.55958984 1.05347656 13.55667969 1.04882812 14.58398438 C1.03700007 17.05604849 1.02051849 19.52799518 1 22 C1.71285156 21.67644531 2.42570312 21.35289063 3.16015625 21.01953125 C8.80132181 18.9942985 14.78623534 19.2754952 20.4375 21.125 C24.39926021 24.02384894 26.46015582 27.38046747 28 32 C28.15370348 34.72883073 28.25728265 37.43697142 28.31640625 40.16796875 C28.33718735 40.96278152 28.35796844 41.7575943 28.37937927 42.57649231 C28.44472087 45.11340763 28.50368808 47.65042573 28.5625 50.1875 C28.60569986 51.90821372 28.64931463 53.62891708 28.69335938 55.34960938 C28.80038648 59.56630113 28.90169724 63.7830962 29 68 C29.99 68.33 30.98 68.66 32 69 C31.96970703 67.74864258 31.93941406 66.49728516 31.90820312 65.20800781 C31.79590281 60.56381367 31.68423324 55.91960454 31.57275391 51.27539062 C31.52442342 49.26562085 31.47592205 47.25585518 31.42724609 45.24609375 C31.35729733 42.35678147 31.28796378 39.46745497 31.21875 36.578125 C31.19687622 35.68007141 31.17500244 34.78201782 31.15246582 33.85675049 C31.13244507 33.01618103 31.11242432 32.17561157 31.09179688 31.30957031 C31.07403198 30.57232727 31.05626709 29.83508423 31.03796387 29.07550049 C31.00092615 27.05063283 31 25.02520637 31 23 C37 22 37 22 50 22 C50.33 37.18 50.66 52.36 51 68 C52.98 68.495 52.98 68.495 55 69 C54.90640973 63.23392608 54.80030284 57.46826928 54.68261719 51.70263672 C54.64434673 49.7414378 54.60949046 47.78016916 54.578125 45.81884766 C54.5324326 42.99877003 54.474445 40.17917162 54.4140625 37.359375 C54.40251129 36.48319519 54.39096008 35.60701538 54.37905884 34.70428467 C54.35918915 33.88373596 54.33931946 33.06318726 54.31884766 32.21777344 C54.30552399 31.49829529 54.29220032 30.77881714 54.2784729 30.03753662 C53.9587861 27.69844524 53.15410784 26.04472763 52 24 C55.72752106 21.62093617 59.52352406 21.5998712 63.8125 21.4375 C68.94179196 21.21113688 73.9134924 20.75963375 79 20 C85.00421059 19.49315105 89.66616815 19.86245185 95 23 C100.00526877 29.05900957 100.1506153 34.55382062 100.09765625 42.14453125 C100.0962413 42.91431808 100.09482635 43.68410492 100.09336853 44.47721863 C100.08779606 46.92235288 100.07524871 49.36739368 100.0625 51.8125 C100.05748144 53.47591013 100.05291915 55.1393217 100.04882812 56.80273438 C100.03783566 60.86852528 100.0205901 64.93424683 100 69 C101.32 69 102.64 69 104 69 C104 55.14 104 41.28 104 27 C102.515 26.505 102.515 26.505 101 26 C101.495 24.515 101.495 24.515 102 23 C108.33245608 20.88918131 115.3250052 22 122 22 C122.33 36.85 122.66 51.7 123 67 C123.99 64.69 124.98 62.38 126 60 C129.12860495 58.43569752 131.55602925 58.64372716 135 59 C137.5 61.125 137.5 61.125 139 64 C138.84286879 67.92828036 138.19403928 69.70894108 136 73 C134.0546875 73.29296875 134.0546875 73.29296875 131.875 73.1875 C130.59625 73.125625 129.3175 73.06375 128 73 C128 72.34 128 71.68 128 71 C127.34 71 126.68 71 126 71 C125.67 71.66 125.34 72.32 125 73 C109.82 73 94.64 73 79 73 C79.495 71.02 79.495 71.02 80 69 C80.66 69 81.32 69 82 69 C81.97381592 68.02240723 81.94763184 67.04481445 81.9206543 66.03759766 C81.82928063 62.36628648 81.77243963 58.69507295 81.7253418 55.02294922 C81.70039374 53.44204741 81.66642195 51.86125858 81.62280273 50.28076172 C81.36664544 40.75171039 81.35871362 33.16873532 87 25 C86.26177002 24.9904126 85.52354004 24.9808252 84.76293945 24.97094727 C83.00211589 24.94807943 81.24129232 24.92521159 79.48046875 24.90234375 C76.86586209 24.88990033 76.86586209 24.88990033 74 26 C74 40.52 74 55.04 74 70 C74.66 70 75.32 70 76 70 C76 70.99 76 71.98 76 73 C53.23 73 30.46 73 7 73 C7 71.68 7 70.36 7 69 C7.99 68.505 7.99 68.505 9 68 C9.0093457 66.96593018 9.01869141 65.93186035 9.02832031 64.86645508 C9.06829421 61.01755224 9.13407249 57.16944254 9.20751953 53.32104492 C9.23568649 51.65773737 9.25692233 49.99429704 9.27099609 48.33081055 C9.29248592 45.93469475 9.33916288 43.54016816 9.390625 41.14453125 C9.39246796 40.03486748 9.39246796 40.03486748 9.39434814 38.90278625 C9.53520516 33.89995215 10.768752 31.70596734 14 28 C13.505 26.515 13.505 26.515 13 25 C9.04 25 5.08 25 1 25 C1.06901744 30.72959117 1.15705305 36.45846236 1.26245117 42.1875 C1.29563265 44.13500968 1.32368557 46.08261397 1.34643555 48.03027344 C1.38010634 50.83569515 1.43242827 53.64025528 1.48828125 56.4453125 C1.49467117 57.31116974 1.5010611 58.17702698 1.50764465 59.06912231 C1.62954861 64.12160865 2.2954901 67.57329346 5 72 C4 73 4 73 1.77514648 73.11352539 C0.33764038 73.10567017 0.33764038 73.10567017 -1.12890625 73.09765625 C-2.68061523 73.09282227 -2.68061523 73.09282227 -4.26367188 73.08789062 C-5.35228516 73.07951172 -6.44089844 73.07113281 -7.5625 73.0625 C-9.2012207 73.05573242 -9.2012207 73.05573242 -10.87304688 73.04882812 C-13.58208495 73.03699826 -16.29101599 73.02051543 -19 73 C-18.75601219 72.20580658 -18.75601219 72.20580658 -18.50709534 71.39556885 C-17.88085903 68.43716618 -17.88051899 65.69635226 -17.88647461 62.67089844 C-17.88655014 61.38987244 -17.88662567 60.10884644 -17.88670349 58.78900146 C-17.89180974 57.39579225 -17.89702573 56.00258343 -17.90234375 54.609375 C-17.90420968 53.18019663 -17.90563276 51.75101762 -17.90663147 50.32183838 C-17.91044285 46.56699852 -17.92026133 42.81219757 -17.93133545 39.05737305 C-17.94157925 35.22314988 -17.94613545 31.38892041 -17.95117188 27.5546875 C-17.96188486 20.03644063 -17.97894469 12.51822577 -18 5 C-18.66 5 -19.32 5 -20 5 C-20 4.01 -20 3.02 -20 2 C-13.31438112 -0.0571135 -6.98655725 -0.48067514 0 0 Z " fill="#C866BA" transform="translate(152,57)"/>
<path d="M0 0 C0.66 0 1.32 0 2 0 C5.72342062 9.66629196 9.22827407 19.40161063 12.625 29.1875 C12.99681396 30.25468262 13.36862793 31.32186523 13.75170898 32.42138672 C16.00604172 38.94769251 18.10897236 45.50376324 20.08959961 52.1184082 C22.30935372 59.14435558 24.58886537 63.88948396 30 69 C30 69.99 30 70.98 30 72 C19.44 72 8.88 72 -2 72 C-1.505 70.02 -1.505 70.02 -1 68 C-0.01 68 0.98 68 2 68 C1.34 64.04 0.68 60.08 0 56 C-5.94 56 -11.88 56 -18 56 C-17.35954625 63.24822148 -17.35954625 63.24822148 -16 67 C-12.48809191 68.22969878 -12.48809191 68.22969878 -9 69 C-9 70.32 -9 71.64 -9 73 C-21.87 72.505 -21.87 72.505 -35 72 C-34.67 70.68 -34.34 69.36 -34 68 C-32.783125 67.505 -31.56625 67.01 -30.3125 66.5 C-22.2090288 62.72423401 -19.6485948 51.37516443 -16.74609375 43.4453125 C-15.62956293 40.34330266 -14.53254164 37.23464779 -13.4375 34.125 C-12.88155743 32.56355337 -12.32491968 31.00235407 -11.76757812 29.44140625 C-9.67609687 23.57452804 -7.58634782 17.7074134 -5.55517578 11.81933594 C-5.32943375 11.17116913 -5.10369171 10.52300232 -4.87110901 9.85519409 C-4.2642675 8.11173674 -3.66328858 6.3662419 -3.06274414 4.62060547 C-2 2 -2 2 0 0 Z " fill="#CD68BE" transform="translate(64,58)"/>
<path d="M0 0 C0 5.28 0 10.56 0 16 C-0.99 16 -1.98 16 -3 16 C-3.81498562 14.3970947 -4.62689927 12.79262722 -5.4375 11.1875 C-6.11619141 9.84751953 -6.11619141 9.84751953 -6.80859375 8.48046875 C-8 6 -8 6 -9 3 C-14.445 2.505 -14.445 2.505 -20 2 C-19.91403875 6.89979134 -19.62494903 9.87907927 -16.125 13.4375 C-12.97521875 16.29382337 -9.63099458 18.90592736 -6.3125 21.5625 C2.44769597 28.68617585 2.44769597 28.68617585 3.328125 33.96875 C3.56551596 38.51309125 2.90480759 41.53297159 0 45 C-5.58718859 50.08463723 -11.13660646 51.58606498 -18.5 52.375 C-25.44184081 51.63123134 -30.49878587 48.29554604 -35 43 C-36.86726164 40.3688586 -37.01118355 39.26840519 -36.875 36 C-35.85086454 32.48867842 -34.94548102 31.14940507 -32 29 C-28.75 28.25 -28.75 28.25 -26 28 C-26.45890625 27.5875 -26.9178125 27.175 -27.390625 26.75 C-31.71311777 22.68177151 -35.20094567 18.74991875 -37 13 C-37.08891405 8.55429753 -35.66947036 5.5995387 -32.61328125 2.328125 C-23.83881244 -4.89540865 -10.25811407 -1.70968568 0 0 Z " fill="#C968BC" transform="translate(130,79)"/>
<path d="M0 0 C1.01159221 15.78806407 1.11164643 31.56043215 1.125 47.375 C1.12749756 48.43019836 1.12999512 49.48539673 1.13256836 50.5725708 C1.13844015 53.5978934 1.13697524 56.62311384 1.1328125 59.6484375 C1.13479645 60.57662292 1.1367804 61.50480835 1.13882446 62.46112061 C1.11523338 68.88476662 1.11523338 68.88476662 0 70 C-2.14394519 70.0991757 -4.29126732 70.1297015 -6.4375 70.125 C-7.61183594 70.12757813 -8.78617188 70.13015625 -9.99609375 70.1328125 C-13 70 -13 70 -15 69 C-15 46.89 -15 24.78 -15 2 C-8.92329596 0.26379884 -5.93321622 -0.20818303 0 0 Z " fill="#CE69BF" transform="translate(152,59)"/>
<path d="M0 0 C0 16.17 0 32.34 0 49 C-5.61 49 -11.22 49 -17 49 C-17 34.48 -17 19.96 -17 5 C-17.99 4.67 -18.98 4.34 -20 4 C-19.67 3.01 -19.34 2.02 -19 1 C-13 0 -13 0 0 0 Z " fill="#CC67BE" transform="translate(202,79)"/>
<path d="M0 0 C2.31 0.33 4.62 0.66 7 1 C8.24551699 5.81398781 8.12689044 10.52346887 8.09765625 15.45703125 C8.0962413 16.35999435 8.09482635 17.26295746 8.09336853 18.19328308 C8.08778823 21.06638963 8.07523934 23.93941716 8.0625 26.8125 C8.05748245 28.76497283 8.05291999 30.71744689 8.04882812 32.66992188 C8.03782525 37.44664485 8.02057418 42.22330904 8 47 C3.05 47 -1.9 47 -7 47 C-7.02468084 41.90967159 -7.04285082 36.81937785 -7.05493164 31.72900391 C-7.05996682 29.99657586 -7.06679532 28.26415208 -7.07543945 26.53173828 C-7.08754065 24.04458567 -7.09323638 21.55748913 -7.09765625 19.0703125 C-7.10281754 18.29317902 -7.10797882 17.51604553 -7.11329651 16.71536255 C-7.11387171 11.22774341 -7.11387171 11.22774341 -6 9 C-5.360625 8.773125 -4.72125 8.54625 -4.0625 8.3125 C-1.59365982 7.04208728 -1.59365982 7.04208728 -0.75 3.375 C-0.5025 2.26125 -0.255 1.1475 0 0 Z " fill="#CC68BE" transform="translate(241,81)"/>
<path d="M0 0 C0.99799547 3.60325319 0.97110404 6.6285153 0.8125 10.375 C0.73961212 18.10111495 2.20574094 24.77979776 5 32 C5.66 32.66 6.32 33.32 7 34 C7 34.99 7 35.98 7 37 C7.66 37 8.32 37 9 37 C10.38226016 39.76452033 10.09525387 42.0461363 10.0625 45.125 C10.05347656 46.22070312 10.04445312 47.31640625 10.03515625 48.4453125 C10.02355469 49.28835937 10.01195312 50.13140625 10 51 C9.67 51 9.34 51 9 51 C8.34 47.37 7.68 43.74 7 40 C1.06 40 -4.88 40 -11 40 C-10.35954625 47.24822148 -10.35954625 47.24822148 -9 51 C-5.48809191 52.22969878 -5.48809191 52.22969878 -2 53 C-2 54.32 -2 55.64 -2 57 C-14.87 56.505 -14.87 56.505 -28 56 C-27.67 54.68 -27.34 53.36 -27 52 C-25.783125 51.505 -24.56625 51.01 -23.3125 50.5 C-15.08613015 46.65636073 -12.50958204 34.99420974 -9.5703125 26.953125 C-8.40823005 23.7235072 -7.2656654 20.48723151 -6.125 17.25 C-5.52673788 15.5700644 -4.92778411 13.89037495 -4.328125 12.2109375 C-2.87744326 8.14341302 -1.43610613 4.07269226 0 0 Z " fill="#A366A2" transform="translate(57,74)"/>
<path d="M0 0 C2.82711195 2.64560943 3.55899554 4.09449151 4 8 C4.08180692 10.72425831 4.11665566 13.42131306 4.09765625 16.14453125 C4.0962413 16.91431808 4.09482635 17.68410492 4.09336853 18.47721863 C4.08779606 20.92235288 4.07524871 23.36739368 4.0625 25.8125 C4.05748144 27.47591013 4.05291915 29.1393217 4.04882812 30.80273438 C4.03783566 34.86852528 4.0205901 38.93424683 4 43 C5.32 43 6.64 43 8 43 C8 29.14 8 15.28 8 1 C8.33 1 8.66 1 9 1 C9 15.19 9 29.38 9 44 C14.61 44 20.22 44 26 44 C26.33 43.01 26.66 42.02 27 41 C29.72043011 34.13978495 29.72043011 34.13978495 32 33 C35.375 32.625 35.375 32.625 39 33 C41.5 35.125 41.5 35.125 43 38 C42.84286879 41.92828036 42.19403928 43.70894108 40 47 C38.0546875 47.29296875 38.0546875 47.29296875 35.875 47.1875 C34.59625 47.125625 33.3175 47.06375 32 47 C32 46.34 32 45.68 32 45 C31.34 45 30.68 45 30 45 C29.505 45.99 29.505 45.99 29 47 C13.82 47 -1.36 47 -17 47 C-16.67 45.68 -16.34 44.36 -16 43 C-15.34 43 -14.68 43 -14 43 C-14 43.66 -14 44.32 -14 45 C-9.05 45 -4.1 45 1 45 C0.505 42.525 0.505 42.525 0 40 C-0.0800668 38.58859532 -0.11801322 37.17416481 -0.11352539 35.76049805 C-0.11344986 34.96004562 -0.11337433 34.1595932 -0.11329651 33.33488464 C-0.10813522 32.4857399 -0.10297394 31.63659515 -0.09765625 30.76171875 C-0.0962413 29.88095169 -0.09482635 29.00018463 -0.09336853 28.09272766 C-0.08778937 25.29094997 -0.07524071 22.48925338 -0.0625 19.6875 C-0.05748231 17.78320428 -0.05291987 15.87890731 -0.04882812 13.97460938 C-0.03782677 9.31637519 -0.02057649 4.65820133 0 0 Z " fill="#A75FA0" transform="translate(248,83)"/>
<path d="M0 0 C1 1 1 1 1.11352539 3.04125977 C1.10828857 3.91580811 1.10305176 4.79035645 1.09765625 5.69140625 C1.09443359 6.63564453 1.09121094 7.57988281 1.08789062 8.55273438 C1.07951172 9.54595703 1.07113281 10.53917969 1.0625 11.5625 C1.05798828 12.55958984 1.05347656 13.55667969 1.04882812 14.58398438 C1.03700007 17.05604849 1.02051849 19.52799518 1 22 C1.71285156 21.67644531 2.42570312 21.35289063 3.16015625 21.01953125 C8.96903076 18.93408937 15.01534442 19.19268248 20.6875 21.5 C21.450625 21.995 22.21375 22.49 23 23 C23 23.33 23 23.66 23 24 C21.02 24 19.04 24 17 24 C17 25.65 17 27.3 17 29 C16.01 28.67 15.02 28.34 14 28 C13.505 26.515 13.505 26.515 13 25 C9.04 25 5.08 25 1 25 C1.06901744 30.72959117 1.15705305 36.45846236 1.26245117 42.1875 C1.29563265 44.13500968 1.32368557 46.08261397 1.34643555 48.03027344 C1.38010634 50.83569515 1.43242827 53.64025528 1.48828125 56.4453125 C1.49467117 57.31116974 1.5010611 58.17702698 1.50764465 59.06912231 C1.62954861 64.12160865 2.2954901 67.57329346 5 72 C4 73 4 73 1.77514648 73.11352539 C0.33764038 73.10567017 0.33764038 73.10567017 -1.12890625 73.09765625 C-2.68061523 73.09282227 -2.68061523 73.09282227 -4.26367188 73.08789062 C-5.35228516 73.07951172 -6.44089844 73.07113281 -7.5625 73.0625 C-9.2012207 73.05573242 -9.2012207 73.05573242 -10.87304688 73.04882812 C-13.58208495 73.03699826 -16.29101599 73.02051543 -19 73 C-18.75601219 72.20580658 -18.75601219 72.20580658 -18.50709534 71.39556885 C-17.88085903 68.43716618 -17.88051899 65.69635226 -17.88647461 62.67089844 C-17.88655014 61.38987244 -17.88662567 60.10884644 -17.88670349 58.78900146 C-17.89180974 57.39579225 -17.89702573 56.00258343 -17.90234375 54.609375 C-17.90420968 53.18019663 -17.90563276 51.75101762 -17.90663147 50.32183838 C-17.91044285 46.56699852 -17.92026133 42.81219757 -17.93133545 39.05737305 C-17.94157925 35.22314988 -17.94613545 31.38892041 -17.95117188 27.5546875 C-17.96188486 20.03644063 -17.97894469 12.51822577 -18 5 C-18.66 5 -19.32 5 -20 5 C-20 4.01 -20 3.02 -20 2 C-13.31438112 -0.0571135 -6.98655725 -0.48067514 0 0 Z M-15 4 C-15 26.11 -15 48.22 -15 71 C-12.11584117 72.44207941 -9.58278472 72.09394887 -6.375 72.0625 C-4.59222656 72.04896484 -4.59222656 72.04896484 -2.7734375 72.03515625 C-1.85820312 72.02355469 -0.94296875 72.01195312 0 72 C0.9193867 69.24183989 1.12636848 67.61194283 1.12939453 64.77001953 C1.13254669 63.91707306 1.13569885 63.06412659 1.13894653 62.18533325 C1.1369223 61.2605014 1.13489807 60.33566956 1.1328125 59.3828125 C1.13376923 58.41584442 1.13472595 57.44887634 1.13571167 56.4526062 C1.1363934 54.3930454 1.13453959 52.33348247 1.13037109 50.27392578 C1.12512706 47.19949145 1.13026091 44.12521037 1.13671875 41.05078125 C1.14066619 28.00607831 0.74528745 15.02300689 0 2 C-5.93321622 1.79181697 -8.92329596 2.26379884 -15 4 Z " fill="#AB64A3" transform="translate(152,57)"/>
<path d="M0 0 C0.495 0.99 0.495 0.99 1 2 C-1.31 2 -3.62 2 -6 2 C-6.268125 3.134375 -6.53625 4.26875 -6.8125 5.4375 C-7.204375 6.613125 -7.59625 7.78875 -8 9 C-8.99 9.33 -9.98 9.66 -11 10 C-10.5359375 8.8553125 -10.5359375 8.8553125 -10.0625 7.6875 C-9.32106407 5.81210323 -8.63771783 3.91315348 -8 2 C-9.60407328 1.97291433 -11.2082785 1.95356517 -12.8125 1.9375 C-14.15248047 1.92009766 -14.15248047 1.92009766 -15.51953125 1.90234375 C-18.13413791 1.88990033 -18.13413791 1.88990033 -21 3 C-21 17.52 -21 32.04 -21 47 C-20.34 47 -19.68 47 -19 47 C-19 47.99 -19 48.98 -19 50 C-41.77 50 -64.54 50 -88 50 C-88 48.68 -88 47.36 -88 46 C-86.515 45.505 -86.515 45.505 -85 45 C-85 45.66 -85 46.32 -85 47 C-85.66 47 -86.32 47 -87 47 C-87 47.66 -87 48.32 -87 49 C-84.18711295 48.85980308 -81.37483115 48.71312045 -78.5625 48.5625 C-77.76005859 48.52318359 -76.95761719 48.48386719 -76.13085938 48.44335938 C-72.24760439 48.5945704 -72.24760439 48.5945704 -69 47 C-68.83982834 44.19023482 -68.74049466 41.40226404 -68.68359375 38.58984375 C-68.66281265 37.74780899 -68.64203156 36.90577423 -68.62062073 36.03822327 C-68.55503188 33.33806821 -68.49619724 30.63781283 -68.4375 27.9375 C-68.39432363 26.11131759 -68.35070964 24.28514546 -68.30664062 22.45898438 C-68.19934106 17.97276008 -68.09810034 13.4864345 -68 9 C-67.67 9 -67.34 9 -67 9 C-66.505 26.82 -66.505 26.82 -66 45 C-64.515 45.495 -64.515 45.495 -63 46 C-63 32.14 -63 18.28 -63 4 C-62.67 4 -62.34 4 -62 4 C-62 18.52 -62 33.04 -62 48 C-56.39 48 -50.78 48 -45 48 C-44.67 47.01 -44.34 46.02 -44 45 C-42.68 45.33 -41.36 45.66 -40 46 C-40 46.66 -40 47.32 -40 48 C-32.08 47.505 -32.08 47.505 -24 47 C-24.00523682 45.65252686 -24.01047363 44.30505371 -24.01586914 42.91674805 C-24.03395024 37.924079 -24.04544344 32.93141287 -24.05493164 27.9387207 C-24.05996472 25.77660638 -24.06679169 23.61449547 -24.07543945 21.45239258 C-24.08754979 18.34715941 -24.09323852 15.2419712 -24.09765625 12.13671875 C-24.10281754 11.16788254 -24.10797882 10.19904633 -24.11329651 9.20085144 C-24.11337204 8.3001442 -24.11344757 7.39943695 -24.11352539 6.47143555 C-24.115746 5.67867722 -24.11796661 4.88591888 -24.12025452 4.06913757 C-24 2 -24 2 -23 -1 C-15.06193738 -4.14214979 -7.52681476 -4.07702466 0 0 Z " fill="#BA6CAE" transform="translate(247,80)"/>
<path d="M0 0 C4.21796616 0.86080942 6.17690429 2.46458565 9.0625 5.625 C9.7562386 9.32493918 9.33546546 11.06666155 7.6875 14.4375 C6.0625 16.625 6.0625 16.625 4.0625 17.625 C-2.77541515 18.40967879 -2.77541515 18.40967879 -5.609375 16.49609375 C-7.99461383 13.92995198 -8.92004499 12.05264763 -9.0625 8.5625 C-7.26866369 3.87859408 -5.01580236 1.06719199 0 0 Z " fill="#C365B5" transform="translate(264.9375,56.375)"/>
<path d="M0 0 C3.4271896 0.27545636 5.63373856 1.03712538 8.52734375 2.91796875 C10.64889081 6.27708493 10.57519917 8.38949886 10.02734375 12.29296875 C8.58984375 15.23046875 8.58984375 15.23046875 6.02734375 17.29296875 C2.88167662 18.0029083 0.17231281 18.00852134 -2.97265625 17.29296875 C-6.00567056 14.77778615 -6.79899444 13.19986931 -7.53515625 9.35546875 C-6.73118499 4.9782919 -4.8595416 0.7217141 0 0 Z " fill="#C86ABA" transform="translate(191.97265625,56.70703125)"/>
<path d="M0 0 C5 5 5 5 5.60127258 7.15779114 C5.59016953 7.87504868 5.57906647 8.59230621 5.56762695 9.33129883 C5.5672493 10.151772 5.56687164 10.97224518 5.56648254 11.81758118 C5.54067612 12.6885997 5.51486969 13.55961823 5.48828125 14.45703125 C5.47766914 15.81147591 5.47766914 15.81147591 5.46684265 17.19328308 C5.43893319 20.06721088 5.37620232 22.93916472 5.3125 25.8125 C5.28741262 27.76494575 5.26460022 29.71742215 5.24414062 31.66992188 C5.18911789 36.44737102 5.10286998 41.22335126 5 46 C3.35 45.67 1.7 45.34 0 45 C0 30.15 0 15.3 0 0 Z " fill="#20073D" transform="translate(202,80)"/>
<path d="M0 0 C6.3833448 -0.48176187 6.3833448 -0.48176187 9 1.5625 C10.44081415 5.07448448 9.89656164 7.34971332 9 11 C7.594753 14.16180574 6.55208952 15.62696654 3.6875 17.5625 C1 18 1 18 -2.25 16.25 C-5 14 -5 14 -6 12 C-5.9129796 10.28766312 -5.75902838 8.57824594 -5.5625 6.875 C-5.46066406 5.96492188 -5.35882813 5.05484375 -5.25390625 4.1171875 C-5.17011719 3.41851562 -5.08632812 2.71984375 -5 2 C-3.68 2 -2.36 2 -1 2 C-0.67 1.34 -0.34 0.68 0 0 Z " fill="#CD68BF" transform="translate(101,110)"/>
<path d="M0 0 C0.33 0 0.66 0 1 0 C1 14.52 1 29.04 1 44 C6.28 44 11.56 44 17 44 C21.83653232 44.14165576 26.66624644 44.30016885 31.5 44.5 C32.71558594 44.54769531 33.93117187 44.59539062 35.18359375 44.64453125 C38.12251872 44.76023696 41.06130004 44.8787367 44 45 C44 45.33 44 45.66 44 46 C21.23 46 -1.54 46 -25 46 C-25 44.68 -25 43.36 -25 42 C-23.515 41.505 -23.515 41.505 -22 41 C-22 41.66 -22 42.32 -22 43 C-22.66 43 -23.32 43 -24 43 C-24 43.66 -24 44.32 -24 45 C-21.18711295 44.85980308 -18.37483115 44.71312045 -15.5625 44.5625 C-14.76005859 44.52318359 -13.95761719 44.48386719 -13.13085938 44.44335938 C-9.24760439 44.5945704 -9.24760439 44.5945704 -6 43 C-5.83982834 40.19023482 -5.74049466 37.40226404 -5.68359375 34.58984375 C-5.66281265 33.74780899 -5.64203156 32.90577423 -5.62062073 32.03822327 C-5.55503188 29.33806821 -5.49619724 26.63781283 -5.4375 23.9375 C-5.39432363 22.11131759 -5.35070964 20.28514546 -5.30664062 18.45898438 C-5.19934106 13.97276008 -5.09810034 9.4864345 -5 5 C-4.67 5 -4.34 5 -4 5 C-3.505 22.82 -3.505 22.82 -3 41 C-1.515 41.495 -1.515 41.495 0 42 C0 28.14 0 14.28 0 0 Z " fill="#8E4E8D" transform="translate(184,84)"/>
<path d="M0 0 C0.99 0 1.98 0 3 0 C4.00446104 3.2903223 5.00280756 6.58246822 6 9.875 C6.28617188 10.81214844 6.57234375 11.74929687 6.8671875 12.71484375 C7.13789062 13.61074219 7.40859375 14.50664063 7.6875 15.4296875 C7.93886719 16.25710449 8.19023438 17.08452148 8.44921875 17.93701172 C9 20 9 20 9 22 C4.05 22 -0.9 22 -6 22 C-5.3631937 18.81596848 -4.72613881 15.87497908 -3.80859375 12.79296875 C-3.58623047 12.04208984 -3.36386719 11.29121094 -3.13476562 10.51757812 C-2.78961914 9.36418945 -2.78961914 9.36418945 -2.4375 8.1875 C-2.20353516 7.39923828 -1.96957031 6.61097656 -1.72851562 5.79882812 C-1.15431596 3.86529864 -0.57742667 1.93256823 0 0 Z " fill="#1D063A" transform="translate(54,89)"/>
<path d="M0 0 C4 4.75 4 4.75 4 7 C6.31 7.66 8.62 8.32 11 9 C11 10.32 11 11.64 11 13 C-1.87 12.505 -1.87 12.505 -15 12 C-14.67 10.68 -14.34 9.36 -14 8 C-11.34765625 6.62109375 -11.34765625 6.62109375 -8.0625 5.4375 C-3.22103416 3.80649752 -3.22103416 3.80649752 0 0 Z " fill="#B067A6" transform="translate(44,118)"/>
<path d="M0 0 C1 1 1 1 1.11352539 3.04125977 C1.10828857 3.91580811 1.10305176 4.79035645 1.09765625 5.69140625 C1.09443359 6.63564453 1.09121094 7.57988281 1.08789062 8.55273438 C1.07951172 9.54595703 1.07113281 10.53917969 1.0625 11.5625 C1.05798828 12.55958984 1.05347656 13.55667969 1.04882812 14.58398438 C1.03700007 17.05604849 1.02051849 19.52799518 1 22 C1.71285156 21.67644531 2.42570312 21.35289063 3.16015625 21.01953125 C8.96903076 18.93408937 15.01534442 19.19268248 20.6875 21.5 C21.450625 21.995 22.21375 22.49 23 23 C23 23.33 23 23.66 23 24 C21.02 24 19.04 24 17 24 C17 25.65 17 27.3 17 29 C16.01 28.67 15.02 28.34 14 28 C13.505 26.515 13.505 26.515 13 25 C9.04 25 5.08 25 1 25 C-0.2263757 22.54724859 -0.11415314 20.9494219 -0.09765625 18.2109375 C-0.09443359 17.26992187 -0.09121094 16.32890625 -0.08789062 15.359375 C-0.07951172 14.37453125 -0.07113281 13.3896875 -0.0625 12.375 C-0.05798828 11.38242188 -0.05347656 10.38984375 -0.04882812 9.3671875 C-0.03702145 6.9113984 -0.020554 4.45572896 0 2 C-2.58422459 2.11418667 -5.16679513 2.24092362 -7.75 2.375 C-8.84441406 2.42140625 -8.84441406 2.42140625 -9.9609375 2.46875 C-13.73942656 2.6748494 -16.77946668 2.91512843 -20 5 C-20 4.01 -20 3.02 -20 2 C-13.31438112 -0.0571135 -6.98655725 -0.48067514 0 0 Z " fill="#A666A0" transform="translate(152,57)"/>
<path d="M0 0 C3.4375 -0.4375 3.4375 -0.4375 7 0 C9 1.625 9 1.625 10 4 C9.76261647 7.87726431 9.17282078 9.74076883 7 13 C5.0546875 13.29296875 5.0546875 13.29296875 2.875 13.1875 C1.59625 13.125625 0.3175 13.06375 -1 13 C-1 12.34 -1 11.68 -1 11 C-1.66 11 -2.32 11 -3 11 C-2.25 3.375 -2.25 3.375 0 0 Z " fill="#CC69BD" transform="translate(281,117)"/>
<path d="M0 0 C1.12894876 0.93274109 2.25300876 1.87140122 3.375 2.8125 C4.00148438 3.33457031 4.62796875 3.85664062 5.2734375 4.39453125 C7.90709708 6.84347715 8.95539963 8.45364552 9.25 12.0625 C9 15 9 15 7 17 C0.67741935 17.33870968 0.67741935 17.33870968 -2 16 C-1.38722388 13.03824877 -0.74627478 11.61941217 1 9 C1.02639829 6.70285813 1.02639829 6.70285813 0.625 4.3125 C0.51414062 3.50425781 0.40328125 2.69601563 0.2890625 1.86328125 C0.19367188 1.24839844 0.09828125 0.63351563 0 0 Z " fill="#230A3F" transform="translate(109,110)"/>
<path d="M0 0 C2 2 2 2 3.3125 5.3125 C4.8134382 9.03389832 7.12963177 11.20720929 10 14 C10 14.99 10 15.98 10 17 C-0.56 17 -11.12 17 -22 17 C-21.67 15.68 -21.34 14.36 -21 13 C-20.34 13.33 -19.68 13.66 -19 14 C-19.33 14.66 -19.66 15.32 -20 16 C-17.68715544 15.85973717 -15.37472409 15.71264442 -13.0625 15.5625 C-11.77472656 15.48128906 -10.48695312 15.40007812 -9.16015625 15.31640625 C-6.13976043 15.35080812 -6.13976043 15.35080812 -5 14 C-2.32941149 13.85884839 0.32432238 13.95752893 3 14 C2.7834375 13.32453125 2.566875 12.6490625 2.34375 11.953125 C2.0653125 11.06109375 1.786875 10.1690625 1.5 9.25 C1.2215625 8.36828125 0.943125 7.4865625 0.65625 6.578125 C0 4 0 4 0 0 Z " fill="#9E5999" transform="translate(84,113)"/>
<path d="M0 0 C0.33 0.66 0.66 1.32 1 2 C-1.31 2 -3.62 2 -6 2 C-6.268125 3.134375 -6.53625 4.26875 -6.8125 5.4375 C-7.204375 6.613125 -7.59625 7.78875 -8 9 C-8.99 9.33 -9.98 9.66 -11 10 C-10.690625 9.236875 -10.38125 8.47375 -10.0625 7.6875 C-9.32106407 5.81210323 -8.63771783 3.91315348 -8 2 C-9.58323688 1.972807 -11.16661062 1.95351694 -12.75 1.9375 C-13.63171875 1.92589844 -14.5134375 1.91429688 -15.421875 1.90234375 C-17.7818838 1.99173802 -19.74498524 2.33087179 -22 3 C-22.33 1.68 -22.66 0.36 -23 -1 C-14.78512064 -3.79655468 -7.76877512 -4.20808653 0 0 Z " fill="#AA60A2" transform="translate(247,80)"/>
<path d="M0 0 C0.96470453 3.4690385 0.94772909 6.15452847 0.5625 9.75 C0.46066406 10.73484375 0.35882813 11.7196875 0.25390625 12.734375 C0.17011719 13.48203125 0.08632813 14.2296875 0 15 C-0.99 15 -1.98 15 -3 15 C-3.1546875 16.423125 -3.1546875 16.423125 -3.3125 17.875 C-3.9910919 22.73491554 -5.5085476 27.33803874 -7 32 C-7.66 32 -8.32 32 -9 32 C-10.62514468 33.45833358 -10.62514468 33.45833358 -12 35 C-9.76946204 27.16596949 -7.10146508 19.52574949 -4.3125 11.875 C-3.89677734 10.72773437 -3.48105469 9.58046875 -3.05273438 8.3984375 C-2.03759802 5.59806135 -1.01997571 2.79861634 0 0 Z " fill="#9C639A" transform="translate(57,74)"/>
<path d="M0 0 C1.32 0 2.64 0 4 0 C5.01159221 15.78806407 5.11164643 31.56043215 5.125 47.375 C5.12749756 48.43019836 5.12999512 49.48539673 5.13256836 50.5725708 C5.13844015 53.5978934 5.13697524 56.62311384 5.1328125 59.6484375 C5.13479645 60.57662292 5.1367804 61.50480835 5.13882446 62.46112061 C5.11523338 68.88476662 5.11523338 68.88476662 4 70 C1.98035801 70.07244053 -0.04167124 70.08377188 -2.0625 70.0625 C-3.16722656 70.05347656 -4.27195313 70.04445313 -5.41015625 70.03515625 C-6.26480469 70.02355469 -7.11945313 70.01195312 -8 70 C-8 69.67 -8 69.34 -8 69 C-3.05 68.505 -3.05 68.505 2 68 C2.33 45.89 2.66 23.78 3 1 C2.01 0.67 1.02 0.34 0 0 Z " fill="#C171B3" transform="translate(148,59)"/>
<path d="M0 0 C1 1 1 1 1.11352539 3.04125977 C1.10828857 3.91580811 1.10305176 4.79035645 1.09765625 5.69140625 C1.09443359 6.63564453 1.09121094 7.57988281 1.08789062 8.55273438 C1.07951172 9.54595703 1.07113281 10.53917969 1.0625 11.5625 C1.05798828 12.55958984 1.05347656 13.55667969 1.04882812 14.58398438 C1.03700007 17.05604849 1.02051849 19.52799518 1 22 C2.32 22.66 3.64 23.32 5 24 C3.68 24.33 2.36 24.66 1 25 C-0.2263757 22.54724859 -0.11415314 20.9494219 -0.09765625 18.2109375 C-0.09443359 17.26992187 -0.09121094 16.32890625 -0.08789062 15.359375 C-0.07951172 14.37453125 -0.07113281 13.3896875 -0.0625 12.375 C-0.05798828 11.38242188 -0.05347656 10.38984375 -0.04882812 9.3671875 C-0.03702145 6.9113984 -0.020554 4.45572896 0 2 C-2.58422459 2.11418667 -5.16679513 2.24092362 -7.75 2.375 C-8.84441406 2.42140625 -8.84441406 2.42140625 -9.9609375 2.46875 C-13.73942656 2.6748494 -16.77946668 2.91512843 -20 5 C-20 4.01 -20 3.02 -20 2 C-13.31438112 -0.0571135 -6.98655725 -0.48067514 0 0 Z " fill="#9E5E9A" transform="translate(152,57)"/>
<path d="M0 0 C2.0625 2.1875 2.0625 2.1875 4 5 C3.75 7.8125 3.75 7.8125 3 10 C0.03 10 -2.94 10 -6 10 C-6.33 8.68 -6.66 7.36 -7 6 C-6.030625 5.38125 -5.06125 4.7625 -4.0625 4.125 C-0.97164638 2.34321154 -0.97164638 2.34321154 0 0 Z " fill="#C865BB" transform="translate(44,118)"/>
<path d="M0 0 C0.33 0.99 0.66 1.98 1 3 C1.66 3.66 2.32 4.32 3 5 C-3.01344909 6.45780584 -8.34409281 6.74225803 -14 4 C-13.34 3.01 -12.68 2.02 -12 1 C-9.43359375 0.7421875 -9.43359375 0.7421875 -6.4375 0.875 C-4.62589916 0.94567363 -2.81296952 0.99417987 -1 1 C-0.67 0.67 -0.34 0.34 0 0 Z " fill="#9B6098" transform="translate(117,125)"/>
<path d="M0 0 C6.992 5.472 6.992 5.472 8 9 C8.42612836 14.36921733 8.45329671 17.61696956 5 22 C4.34 22.33 3.68 22.66 3 23 C3.33 22.236875 3.66 21.47375 4 20.6875 C5.33945668 15.74825349 5.16287658 11.08536891 5 6 C3.68 5.67 2.36 5.34 1 5 C0.67 3.35 0.34 1.7 0 0 Z " fill="#B66BAC" transform="translate(125,102)"/>
<path d="M0 0 C-0.33 0.66 -0.66 1.32 -1 2 C-3.31 1.67 -5.62 1.34 -8 1 C-8.33 1.99 -8.66 2.98 -9 4 C-10.32 3.67 -11.64 3.34 -13 3 C-13.33 5.64 -13.66 8.28 -14 11 C-14.66 10.34 -15.32 9.68 -16 9 C-15.85207699 5.59777075 -15.3507668 3.51913486 -13.4375 0.6875 C-9.07254084 -2.3343948 -4.56151654 -3.04101103 0 0 Z " fill="#A65CA0" transform="translate(109,109)"/>
<path d="M0 0 C2.31 0 4.62 0 7 0 C7 2.97 7 5.94 7 9 C5.68 9 4.36 9 3 9 C2.01 6.03 1.02 3.06 0 0 Z " fill="#C569B7" transform="translate(122,81)"/>
<path d="M0 0 C2.46800047 1.15173355 4.04783565 2.04783565 6 4 C6.51124478 8.601203 5.81720317 11.31596509 3 15 C2.34 15 1.68 15 1 15 C1.66 12.36 2.32 9.72 3 7 C2.01 7 1.02 7 0 7 C0 4.69 0 2.38 0 0 Z " fill="#B96BAE" transform="translate(268,58)"/>
<path d="M0 0 C1.11084961 0.07831055 1.11084961 0.07831055 2.24414062 0.15820312 C4.05902709 0.28700152 5.87333325 0.42393262 7.6875 0.5625 C7.6875 0.8925 7.6875 1.2225 7.6875 1.5625 C5.0475 1.5625 2.4075 1.5625 -0.3125 1.5625 C-0.3125 2.2225 -0.3125 2.8825 -0.3125 3.5625 C-1.97861905 3.605221 -3.64632885 3.60313832 -5.3125 3.5625 C-5.6425 3.2325 -5.9725 2.9025 -6.3125 2.5625 C-7.83178038 2.49070036 -9.35417482 2.47857993 -10.875 2.5 C-12.11443359 2.51353516 -12.11443359 2.51353516 -13.37890625 2.52734375 C-14.33603516 2.54474609 -14.33603516 2.54474609 -15.3125 2.5625 C-11.13628212 -1.61371788 -5.50079054 -0.4276754 0 0 Z " fill="#9E5D9A" transform="translate(116.3125,77.4375)"/>
<path d="M0 0 C0.33 0 0.66 0 1 0 C1 3.63 1 7.26 1 11 C4.63 11 8.26 11 12 11 C11.67 11.66 11.34 12.32 11 13 C6.38 13 1.76 13 -3 13 C-2.34 11.68 -1.68 10.36 -1 9 C-0.55188863 6.64435404 -0.55188863 6.64435404 -0.375 4.25 C-0.30023438 3.45078125 -0.22546875 2.6515625 -0.1484375 1.828125 C-0.09945312 1.22484375 -0.05046875 0.6215625 0 0 Z " fill="#C16EB5" transform="translate(67,116)"/>
<path d="M0 0 C0.66 0 1.32 0 2 0 C2.84124316 2.24732102 3.67314832 4.49738785 4.5 6.75 C4.85771484 7.70132813 4.85771484 7.70132813 5.22265625 8.671875 C6.44801758 12.03286607 7 14.36871587 7 18 C6.34 18 5.68 18 5 18 C4.15875684 15.75267898 3.32685168 13.50261215 2.5 11.25 C2.26152344 10.61578125 2.02304688 9.9815625 1.77734375 9.328125 C0.55198242 5.96713393 0 3.63128413 0 0 Z " fill="#B76DAC" transform="translate(74,86)"/>
<path d="M0 0 C0.66 0.66 1.32 1.32 2 2 C1.732572 6.72456133 0.98092989 10.27383763 -2 14 C-4.6875 15.3125 -4.6875 15.3125 -7 16 C-7.66 15.34 -8.32 14.68 -9 14 C-7.68 14 -6.36 14 -5 14 C-5 13.01 -5 12.02 -5 11 C-4.34 11 -3.68 11 -3 11 C-3 10.34 -3 9.68 -3 9 C-2.34 9 -1.68 9 -1 9 C-0.67 6.03 -0.34 3.06 0 0 Z " fill="#BA6BAE" transform="translate(109,112)"/>
<path d="M0 0 C2.10814567 4.21629134 2.17700355 6.39790775 2 11 C1.01 11 0.02 11 -1 11 C-2.65 11.66 -4.3 12.32 -6 13 C-4.02 8.71 -2.04 4.42 0 0 Z " fill="#9D5C98" transform="translate(44,110)"/>
<path d="M0 0 C1.5625 1.125 1.5625 1.125 3 3 C2.75921963 6.85248595 2.15973378 8.76039934 0 12 C-1.9453125 12.29296875 -1.9453125 12.29296875 -4.125 12.1875 C-6.043125 12.0946875 -6.043125 12.0946875 -8 12 C-8 11.34 -8 10.68 -8 10 C-6.865625 9.690625 -5.73125 9.38125 -4.5625 9.0625 C-1.21224901 8.37075469 -1.21224901 8.37075469 0 7 C0.04092937 4.66702567 0.04241723 2.33294775 0 0 Z " fill="#A967A1" transform="translate(288,118)"/>
<path d="M0 0 C0.33 0.99 0.66 1.98 1 3 C0.34 4.32 -0.32 5.64 -1 7 C1.97 7 4.94 7 8 7 C8 7.66 8 8.32 8 9 C4.37 9 0.74 9 -3 9 C-3 3.375 -3 3.375 0 0 Z " fill="#B771B1" transform="translate(48,105)"/>
<path d="M0 0 C0 0.33 0 0.66 0 1 C-1.98 1 -3.96 1 -6 1 C-6.99 4.3 -7.98 7.6 -9 11 C-9.99 10.67 -10.98 10.34 -12 10 C-11.55090939 8.51800098 -11.09043436 7.03944764 -10.625 5.5625 C-10.36976563 4.73878906 -10.11453125 3.91507812 -9.8515625 3.06640625 C-8.06562409 -1.26736172 -4.09975361 -0.07592136 0 0 Z " fill="#985596" transform="translate(287,116)"/>
<path d="M0 0 C1.09651823 3.41139003 0.94215473 6.20655581 0.5625 9.75 C0.40974609 11.22726563 0.40974609 11.22726563 0.25390625 12.734375 C0.12822266 13.85585937 0.12822266 13.85585937 0 15 C-0.99 15 -1.98 15 -3 15 C-3.36263859 9.1977825 -2.25684543 5.36000789 0 0 Z " fill="#A861A3" transform="translate(57,74)"/>
<path d="M0 0 C0.33 0 0.66 0 1 0 C1.2475 1.051875 1.495 2.10375 1.75 3.1875 C2.76700786 6.8133541 4.45373429 9.19910772 7 12 C4.4276784 11.65238897 2.39328607 11.2228621 0.125 9.9375 C-1.77229882 6.66992981 -0.65475809 3.63093124 0 0 Z " fill="#AE66A6" transform="translate(109,83)"/>
<path d="M0 0 C4.51617599 -0.07654536 8.59085217 -0.10228696 13 1 C13 1.33 13 1.66 13 2 C10.69 2 8.38 2 6 2 C6.33 3.32 6.66 4.64 7 6 C6.34 5.67 5.68 5.34 5 5 C5 4.34 5 3.68 5 3 C3.35 2.67 1.7 2.34 0 2 C0 1.34 0 0.68 0 0 Z " fill="#B471A9" transform="translate(116,79)"/>
<path d="M0 0 C0.721875 0.12375 1.44375 0.2475 2.1875 0.375 C0.8675 0.705 -0.4525 1.035 -1.8125 1.375 C-1.895 1.99375 -1.9775 2.6125 -2.0625 3.25 C-2.8125 5.375 -2.8125 5.375 -4.875 6.625 C-5.8340625 6.99625 -5.8340625 6.99625 -6.8125 7.375 C-6.8125 9.025 -6.8125 10.675 -6.8125 12.375 C-7.1425 12.375 -7.4725 12.375 -7.8125 12.375 C-8.27962496 8.4511503 -7.99717957 6.11348568 -5.625 3 C-2.8125 0.375 -2.8125 0.375 0 0 Z " fill="#A25B9E" transform="translate(192.8125,56.625)"/>
<path d="M0 0 C0 0.33 0 0.66 0 1 C-1.66289062 1.18175781 -1.66289062 1.18175781 -3.359375 1.3671875 C-4.82296234 1.53606296 -6.28650157 1.70535572 -7.75 1.875 C-8.47960937 1.95363281 -9.20921875 2.03226563 -9.9609375 2.11328125 C-13.66777257 2.55136176 -16.80452172 2.9986215 -20 5 C-20 4.01 -20 3.02 -20 2 C-13.24112575 -0.07965362 -7.04440079 -0.21133202 0 0 Z " fill="#79467F" transform="translate(152,57)"/>
<path d="M0 0 C0.33 0.99 0.66 1.98 1 3 C1.66 3.66 2.32 4.32 3 5 C1.741875 5.185625 0.48375 5.37125 -0.8125 5.5625 C-1.87404297 5.71912109 -1.87404297 5.71912109 -2.95703125 5.87890625 C-5 6 -5 6 -8 5 C-8 4.34 -8 3.68 -8 3 C-5.69 3 -3.38 3 -1 3 C-0.67 2.01 -0.34 1.02 0 0 Z " fill="#A971A5" transform="translate(117,125)"/>
<path d="M0 0 C2.45823172 3.68734758 3.01242616 6.69699971 4 11 C2.0625 10.375 2.0625 10.375 0 9 C-0.99184231 5.41410857 -1.18429132 3.55287397 0 0 Z " fill="#B365A7" transform="translate(67,62)"/>
<path d="M0 0 C2.32590854 3.63423209 2.16265833 6.77088331 2 11 C-0.7865517 8.2134483 -0.65662895 5.84575573 -1 2 C-0.67 1.34 -0.34 0.68 0 0 Z " fill="#975595" transform="translate(94,86)"/>
<path d="M0 0 C1.34771696 2.21976911 2.04398726 3.50147776 1.8125 6.125 C1 8 1 8 -2 10 C-1.54177532 6.53058454 -1.10868317 3.32604951 0 0 Z " fill="#9F5B99" transform="translate(61,62)"/>
<path d="M0 0 C1.98 1.65 3.96 3.3 6 5 C5.67 5.66 5.34 6.32 5 7 C2.5 5.75 2.5 5.75 0 4 C0 2.68 0 1.36 0 0 Z " fill="#AD64A6" transform="translate(125,102)"/>
<path d="M0 0 C5.875 3.75 5.875 3.75 7 6 C4.61435923 5.42415568 2.33317216 4.77772405 0 4 C0 2.68 0 1.36 0 0 Z " fill="#B56AAB" transform="translate(116,95)"/>
<path d="M0 0 C0.33 0 0.66 0 1 0 C1 2.64 1 5.28 1 8 C-0.98 8.99 -0.98 8.99 -3 10 C-2.01 6.7 -1.02 3.4 0 0 Z " fill="#905A91" transform="translate(53,85)"/>
<path d="M0 0 C-0.33 1.65 -0.66 3.3 -1 5 C-2.32 5 -3.64 5 -5 5 C-4.625 3.0625 -4.625 3.0625 -4 1 C-2 0 -2 0 0 0 Z " fill="#9A5695" transform="translate(34,125)"/>
<path d="M0 0 C0 0.33 0 0.66 0 1 C-0.969375 1.12375 -1.93875 1.2475 -2.9375 1.375 C-4.4534375 1.684375 -4.4534375 1.684375 -6 2 C-6.33 2.66 -6.66 3.32 -7 4 C-7.99 4 -8.98 4 -10 4 C-10 3.01 -10 2.02 -10 1 C-6.52674819 -0.1577506 -3.63932552 -0.06866652 0 0 Z " fill="#C073B3" transform="translate(265,80)"/>
</svg>
