<?xml version="1.0" encoding="UTF-8"?>
<svg version="1.1" xmlns="http://www.w3.org/2000/svg" width="500" height="500">
<path d="M0 0 C1 1 1 1 1.11352539 3.50024414 C1.10828857 4.58426514 1.10305176 5.66828613 1.09765625 6.78515625 C1.09443359 7.95498047 1.09121094 9.12480469 1.08789062 10.33007812 C1.07951172 11.56177734 1.07113281 12.79347656 1.0625 14.0625 C1.05798828 15.29806641 1.05347656 16.53363281 1.04882812 17.80664062 C1.03699608 20.87114117 1.02051173 23.93554721 1 27 C1.99 26.34 2.98 25.68 4 25 C10.90931625 23.20009409 18.96862744 22.65920297 25.5625 25.6875 C29.41785937 27.95112386 31.28388895 30.57391944 32.55357361 34.87542725 C33.02668397 37.12699077 33.15906776 39.19365434 33.20532227 41.49316406 C33.2352401 42.81408051 33.2352401 42.81408051 33.26576233 44.16168213 C33.28247482 45.10348328 33.29918732 46.04528442 33.31640625 47.015625 C33.33718735 47.98659119 33.35796844 48.95755737 33.37937927 49.95794678 C33.44468862 53.05522685 33.50367323 56.15259068 33.5625 59.25 C33.60570292 61.35157111 33.64931778 63.4531338 33.69335938 65.5546875 C33.80035098 70.70303948 33.9016709 75.85147558 34 81 C35.65 81.66 37.3 82.32 39 83 C39.07587458 75.77350568 39.12852551 68.54711351 39.16479492 61.3203125 C39.17990988 58.86031252 39.20040227 56.40033959 39.22631836 53.94042969 C39.2625823 50.41073948 39.27969914 46.88140456 39.29296875 43.3515625 C39.30845261 42.24632233 39.32393646 41.14108215 39.33988953 40.00234985 C39.34022942 38.47098892 39.34022942 38.47098892 39.34057617 36.90869141 C39.34723801 36.00712311 39.35389984 35.10555481 39.36076355 34.17666626 C39.18218559 33.09921646 39.18218559 33.09921646 39 32 C38.01 31.34 37.02 30.68 36 30 C36 29.34 36 28.68 36 28 C38.93023267 26.53488367 42.03616989 26.35387914 45.25 25.9375 C46.55453125 25.76089844 47.8590625 25.58429688 49.203125 25.40234375 C52.51916552 25.05095262 55.67099869 24.84363782 59 25 C60.67537122 26.67537122 60.15914622 28.7381128 60.18945312 31.03881836 C60.20617065 32.11340805 60.22288818 33.18799774 60.2401123 34.29515076 C60.25368774 35.46489944 60.26726318 36.63464813 60.28125 37.83984375 C60.29965942 39.03227188 60.31806885 40.22470001 60.33703613 41.45326233 C60.39600615 45.28128962 60.44872495 49.10936235 60.5 52.9375 C60.56746662 57.96754668 60.64115764 62.99744425 60.71875 68.02734375 C60.73232544 69.19506821 60.74590088 70.36279266 60.7598877 71.56590271 C60.77660522 72.64364456 60.79332275 73.72138641 60.81054688 74.83178711 C60.82307495 75.78363388 60.83560303 76.73548065 60.84851074 77.71617126 C60.85406538 80.0306596 60.85406538 80.0306596 62 82 C63.32 82 64.64 82 66 82 C66.99840352 76.27280319 67.09826936 70.78488343 66.984375 64.98046875 C66.96787903 64.0406868 66.95138306 63.10090485 66.93438721 62.13264465 C66.89707312 60.15843603 66.85655197 58.18428568 66.81298828 56.21020508 C66.74984199 53.17991744 66.70865536 50.14980261 66.66796875 47.11914062 C66.62895206 45.19788882 66.58863357 43.27666292 66.546875 41.35546875 C66.53734802 40.44717819 66.52782104 39.53888763 66.51800537 38.60307312 C66.4834726 37.34585197 66.4834726 37.34585197 66.44824219 36.06323242 C66.43412292 35.3248967 66.42000366 34.58656097 66.40545654 33.82585144 C66.12909715 31.58627691 66.12909715 31.58627691 63 30 C63 29.34 63 28.68 63 28 C66.08316245 26.45841878 69.42659609 26.34453208 72.8125 25.9375 C73.52470703 25.84662109 74.23691406 25.75574219 74.97070312 25.66210938 C84.47738598 24.49246199 84.47738598 24.49246199 89 26 C89.804375 25.690625 90.60875 25.38125 91.4375 25.0625 C97.59037273 23.22743269 104.77403132 22.9049613 110.9375 25 C115.00856196 27.65865271 117.03287636 30.57139883 119 35 C119.6756688 38.53140726 119.69895387 41.96666065 119.671875 45.5546875 C119.68462463 46.53744659 119.69737427 47.52020569 119.71051025 48.53274536 C119.7466221 51.647129 119.74951802 54.76042605 119.75 57.875 C119.77161484 61.0105934 119.80003197 64.14602417 119.83233643 67.28152466 C119.85010226 69.22684303 119.86038182 71.17224691 119.86248779 73.11764526 C119.86629456 73.99260651 119.87010132 74.86756775 119.87402344 75.76904297 C119.87448669 76.53989227 119.87494995 77.31074158 119.87542725 78.10494995 C119.88289201 80.0887683 119.88289201 80.0887683 121 82 C123.02463255 82.65213292 123.02463255 82.65213292 125 83 C126.16908233 77.51009879 126.08817411 72.21861131 125.984375 66.640625 C125.96787903 65.65503601 125.95138306 64.66944702 125.93438721 63.6539917 C125.89701879 61.57965379 125.85648983 59.50537069 125.81298828 57.43115234 C125.74994325 54.24713395 125.70869966 51.06327834 125.66796875 47.87890625 C125.62894488 45.86195278 125.58862563 43.84502387 125.546875 41.828125 C125.53734802 40.87294983 125.52782104 39.91777466 125.51800537 38.93365479 C125.4834726 37.61152985 125.4834726 37.61152985 125.44824219 36.26269531 C125.43412292 35.4858136 125.42000366 34.70893188 125.40545654 33.9085083 C125.1456915 31.59257277 125.1456915 31.59257277 122 30 C122.33 29.01 122.66 28.02 123 27 C125.54112232 26.66198848 128.08276746 26.32946621 130.625 26 C131.33785156 25.90460938 132.05070313 25.80921875 132.78515625 25.7109375 C136.87936858 25.18507537 140.86190089 24.7962782 145 25 C146.65996868 26.65996868 146.15869508 28.64721948 146.18945312 30.93115234 C146.21452942 32.50816422 146.21452942 32.50816422 146.2401123 34.11703491 C146.26047546 35.83414169 146.26047546 35.83414169 146.28125 37.5859375 C146.29965942 38.75379791 146.31806885 39.92165833 146.33703613 41.12490845 C146.39600365 44.87488594 146.44871426 48.62491004 146.5 52.375 C146.5675378 57.29957832 146.64125132 62.22400704 146.71875 67.1484375 C146.73911316 68.85947159 146.73911316 68.85947159 146.7598877 70.60507202 C146.78496399 72.19154037 146.78496399 72.19154037 146.81054688 73.81005859 C146.82307495 74.74191986 146.83560303 75.67378113 146.84851074 76.63388062 C147.09819616 80.53373147 148.18768835 82.43223719 151 85 C150 86 150 86 147.82969666 86.12025452 C146.87261307 86.11803391 145.91552948 86.11581329 144.92944336 86.11352539 C143.84839828 86.11344986 142.76735321 86.11337433 141.65354919 86.11329651 C139.889515 86.10555458 139.889515 86.10555458 138.08984375 86.09765625 C136.89267227 86.0962413 135.69550079 86.09482635 134.46205139 86.09336853 C130.62050934 86.08774979 126.77902457 86.07519411 122.9375 86.0625 C120.34049563 86.05748741 117.74349035 86.05292409 115.14648438 86.04882812 C108.76430321 86.03777427 102.3821557 86.02101792 96 86 C96 83 96 83 98 81 C98.20953649 78.13249976 98.30114071 75.35384763 98.30859375 72.484375 C98.33376475 70.74088223 98.35916261 68.99739273 98.38476562 67.25390625 C98.41345225 64.50440395 98.43746604 61.75495868 98.45629883 59.00537109 C98.47803023 56.35223014 98.51748791 53.69977637 98.55859375 51.046875 C98.55870956 50.23103943 98.55882538 49.41520386 98.5589447 48.574646 C98.6613975 42.63044977 99.99220219 38.60270087 103.6875 33.8125 C105.29325491 31.96799798 105.29325491 31.96799798 105 29 C102.24489615 28.08163205 100.47683812 27.83683309 97.625 27.8125 C96.49964844 27.79123047 96.49964844 27.79123047 95.3515625 27.76953125 C92.62292253 28.0369561 90.5177642 28.94540215 88 30 C87.97465501 36.90510271 87.95713522 43.81019343 87.94506836 50.71533203 C87.94003811 53.06462045 87.9332132 55.41390573 87.92456055 57.76318359 C87.91243782 61.13900526 87.9067586 64.51478555 87.90234375 67.890625 C87.89718246 68.94179504 87.89202118 69.99296509 87.88670349 71.07598877 C87.88659019 72.54706085 87.88659019 72.54706085 87.88647461 74.04785156 C87.884254 74.90944885 87.88203339 75.77104614 87.87974548 76.65875244 C87.99805883 78.96220709 88.16417685 80.84658998 89 83 C90.485 83.495 90.485 83.495 92 84 C91.67 84.66 91.34 85.32 91 86 C63.94 86 36.88 86 9 86 C9 85.01 9 84.02 9 83 C9.99 82.34 10.98 81.68 12 81 C12.26409288 77.98597547 12.34442816 75.16550076 12.30078125 72.15234375 C12.30843042 70.33137661 12.31692152 68.51041284 12.32617188 66.68945312 C12.32397078 63.82142631 12.31266041 60.95407908 12.28491211 58.08618164 C12.13937686 38.77348639 12.13937686 38.77348639 17.71166992 32.23266602 C18.34939331 31.62249634 18.34939331 31.62249634 19 31 C16.89574644 28.60486055 16.89574644 28.60486055 13.94921875 27.671875 C12.82966797 27.71054688 12.82966797 27.71054688 11.6875 27.75 C10.94886719 27.76546875 10.21023438 27.7809375 9.44921875 27.796875 C6.59780899 28.03335555 3.81916548 28.51744668 1 29 C1.04164615 36.17205358 1.11395015 43.34332971 1.20751953 50.51489258 C1.23573547 52.95427428 1.25694685 55.39374752 1.27099609 57.83325195 C1.2924161 61.34113448 1.33906435 64.84791571 1.390625 68.35546875 C1.39185364 69.44522507 1.39308228 70.53498138 1.39434814 71.65776062 C1.48193195 77.77317864 1.48193195 77.77317864 4.03808594 83.2277832 C4.68551758 83.81261475 5.33294922 84.39744629 6 85 C5 86 5 86 2.40795898 86.11352539 C1.28204346 86.10828857 0.15612793 86.10305176 -1.00390625 86.09765625 C-2.82631836 86.09282227 -2.82631836 86.09282227 -4.68554688 86.08789062 C-5.96494141 86.07951172 -7.24433594 86.07113281 -8.5625 86.0625 C-9.84576172 86.05798828 -11.12902344 86.05347656 -12.45117188 86.04882812 C-15.63416022 86.03699545 -18.81705762 86.02051068 -22 86 C-22 83 -22 83 -20 81 C-19.67777082 77.82979521 -19.67777082 77.82979521 -19.70947266 74.04345703 C-19.70275543 73.32782593 -19.69603821 72.61219482 -19.68911743 71.87487793 C-19.67007583 69.50245269 -19.66621005 67.13030946 -19.6640625 64.7578125 C-19.65763833 63.11115399 -19.65091026 61.46449665 -19.64389038 59.81784058 C-19.63190185 56.3627457 -19.62821112 52.90775093 -19.62939453 49.45263672 C-19.6295977 45.02486204 -19.60230568 40.59772941 -19.56785011 36.17010689 C-19.54561224 32.76774142 -19.54155604 29.36553114 -19.54261398 25.96310043 C-19.54025293 24.33080713 -19.53140105 22.69850987 -19.51594925 21.06628799 C-19.49635317 18.78217917 -19.50210104 16.49946327 -19.51416016 14.21533203 C-19.5098851 12.26580124 -19.5098851 12.26580124 -19.50552368 10.27688599 C-20.07636583 6.49392499 -21.04122112 5.32696514 -24 3 C-19.92842628 -1.07157372 -5.57698431 -0.33461906 0 0 Z " fill="#CF69C0" transform="translate(246,195)"/>
<path d="M0 0 C3.02744495 1.51372247 3.22112953 4.03359994 4.25813293 7.08093262 C4.68723213 8.37891785 4.68723213 8.37891785 5.125 9.703125 C5.42826706 10.60067505 5.73153412 11.4982251 6.04399109 12.42297363 C6.69636711 14.35668722 7.34534241 16.2915507 7.99130249 18.22741699 C9.00020522 21.25061495 10.01793994 24.27070066 11.03833008 27.29003906 C12.39681739 31.31206127 13.75212071 35.33512816 15.10400391 39.359375 C17.61380804 46.82913135 20.14039558 54.29288635 22.6875 61.75 C23.07228516 62.8937207 23.45707031 64.03744141 23.85351562 65.21582031 C26.86392662 75.79879731 26.86392662 75.79879731 33.75 83.5 C34.4925 83.665 35.235 83.83 36 84 C35.67 84.66 35.34 85.32 35 86 C22.79 86 10.58 86 -2 86 C-2 85.01 -2 84.02 -2 83 C-0.02 82.01 -0.02 82.01 2 81 C2.2062504 75.84374012 1.69930719 73.09792156 0 68 C-7.59 67.67 -15.18 67.34 -23 67 C-22.92527764 76.26233923 -22.92527764 76.26233923 -19.8125 80 C-16.91065664 82.06353306 -14.43692753 83.12078598 -11 84 C-11.66 84.99 -12.32 85.98 -13 87 C-15.88916016 87.2487793 -15.88916016 87.2487793 -19.5390625 87.07421875 C-20.84101562 87.01943359 -22.14296875 86.96464844 -23.484375 86.90820312 C-24.86460084 86.83496465 -26.24480902 86.76139261 -27.625 86.6875 C-29.01295766 86.62424925 -30.40097916 86.5623829 -31.7890625 86.50195312 C-35.19358245 86.34827688 -38.59680622 86.18036232 -42 86 C-42.33 85.34 -42.66 84.68 -43 84 C-42.00419922 83.54560547 -42.00419922 83.54560547 -40.98828125 83.08203125 C-40.10527344 82.66308594 -39.22226563 82.24414062 -38.3125 81.8125 C-37.44238281 81.40644531 -36.57226562 81.00039063 -35.67578125 80.58203125 C-29.7205687 77.06106617 -27.04321858 72.66915331 -24.76953125 66.30078125 C-24.48100784 65.52688553 -24.19248444 64.75298981 -23.8952179 63.9556427 C-22.91450348 61.30923131 -21.95638719 58.6552945 -21 56 C-20.26248567 53.97564716 -19.52468147 51.95139991 -18.78662109 49.92724609 C-16.39901417 43.35489996 -14.04174897 36.7718536 -11.6875 30.1875 C-10.47196526 26.79311743 -9.25573541 23.39898653 -8.03852844 20.00520325 C-7.28840565 17.91321677 -6.53931903 15.82085836 -5.79142761 13.72807312 C-5.45379898 12.78551163 -5.11617035 11.84295013 -4.76831055 10.87182617 C-4.47409714 10.04897629 -4.17988373 9.2261264 -3.87675476 8.37834167 C-1.24834363 1.24834363 -1.24834363 1.24834363 0 0 Z M-12 37 C-13.50776616 41.10135565 -15.00487576 45.20652067 -16.5 49.3125 C-16.92925781 50.47974609 -17.35851562 51.64699219 -17.80078125 52.84960938 C-18.20683594 53.96787109 -18.61289063 55.08613281 -19.03125 56.23828125 C-19.40830078 57.26993408 -19.78535156 58.30158691 -20.17382812 59.36450195 C-21.14956274 62.01678062 -21.14956274 62.01678062 -21 65 C-14.4 65 -7.8 65 -1 65 C-3.42288406 55.44306841 -6.64566017 46.2597148 -10 37 C-10.66 37 -11.32 37 -12 37 Z " fill="#D069C1" transform="translate(141,195)"/>
<path d="M0 0 C3.35088179 0.54885133 6.59659827 1 10 1 C11.65497356 4.30994713 11.10084335 7.99123 11.0625 11.625 C11.05798828 12.42679688 11.05347656 13.22859375 11.04882812 14.0546875 C11.03703168 16.03649006 11.01909605 18.01825433 11 20 C10.01 20 9.02 20 8 20 C7.65388672 19.02160156 7.65388672 19.02160156 7.30078125 18.0234375 C5.22972719 12.47334005 3.46904697 7.9724862 -1 4 C-5.24104293 2.39184439 -8.64926679 1.5497556 -13 3 C-13.95303033 6.9709597 -14.44141615 9.16096356 -12.50390625 12.84375 C-9.70140623 16.75304776 -5.97330255 19.4707393 -2.1875 22.375 C11.80544955 33.41634865 11.80544955 33.41634865 14 40 C14.53856933 44.63522786 14.45178019 48.07906346 12.375 52.3125 C6.36740122 59.11057231 -1.11212024 61.36930584 -9.875 62.5 C-17.05591276 62.16430692 -24.77279125 58.87130355 -29.6875 53.625 C-32.20211046 50.18513227 -33.15736946 47.32766014 -33 43 C-31.02061533 39.25330759 -29.52983947 37.35322631 -26 35 C-22.88277596 34.77611098 -20.00731112 35.16252095 -17 36 C-14.10509481 38.53304204 -13.20226404 40.35275508 -12.0625 44 C-11.98682331 47.63248099 -12.84470274 49.12627031 -15 52 C-15.66 52.66 -16.32 53.32 -17 54 C-17 54.99 -17 55.98 -17 57 C-14.67313547 58.16343227 -13.15278587 58.19895988 -10.5625 58.25 C-9.38880859 58.28867187 -9.38880859 58.28867187 -8.19140625 58.328125 C-5.93261423 58.16446479 -5.93261423 58.16446479 -4.21875 56.6875 C-2.68947117 54.90766806 -2.68947117 54.90766806 -2.9375 51.75 C-5.30451514 43.39582891 -12.31770055 39.10237722 -18.87890625 34.05444336 C-25.6503525 28.80313615 -31.11567974 23.67498382 -33 15 C-33.09778751 10.20841195 -31.31153318 7.04833747 -28.11328125 3.62109375 C-19.49709662 -2.98836396 -9.99283523 -2.25513984 0 0 Z " fill="#D069C1" transform="translate(209,220)"/>
<path d="M0 0 C0.33 0 0.66 0 1 0 C1 2.97 1 5.94 1 9 C0.34 9 -0.32 9 -1 9 C-1.38285156 10.65515625 -1.38285156 10.65515625 -1.7734375 12.34375 C-3.06554438 17.51217752 -4.83269499 22.48737461 -6.625 27.5 C-6.94984375 28.4178125 -7.2746875 29.335625 -7.609375 30.28125 C-8.40298026 32.52201779 -9.19991079 34.76154098 -10 37 C-9.40106934 36.9292627 -8.80213867 36.85852539 -8.18505859 36.78564453 C-7.38922363 36.69395996 -6.59338867 36.60227539 -5.7734375 36.5078125 C-4.596604 36.37076904 -4.596604 36.37076904 -3.39599609 36.23095703 C1.20633332 35.78732512 5.56584362 35.52194787 10 37 C10 36.34 10 35.68 10 35 C10.66 35 11.32 35 12 35 C15.13902852 41.80122845 15.33452052 47.56621057 15 55 C14.01 54.67 13.02 54.34 12 54 C12.33 53.67 12.66 53.34 13 53 C13.30339739 47.84224445 12.69688668 45.09066003 11 40 C3.41 39.67 -4.18 39.34 -12 39 C-11.92527764 48.26233923 -11.92527764 48.26233923 -8.8125 52 C-5.91065664 54.06353306 -3.43692753 55.12078598 0 56 C-0.66 56.99 -1.32 57.98 -2 59 C-4.88916016 59.2487793 -4.88916016 59.2487793 -8.5390625 59.07421875 C-9.84101562 59.01943359 -11.14296875 58.96464844 -12.484375 58.90820312 C-13.86460084 58.83496465 -15.24480902 58.76139261 -16.625 58.6875 C-18.01295766 58.62424925 -19.40097916 58.5623829 -20.7890625 58.50195312 C-24.19358245 58.34827688 -27.59680622 58.18036232 -31 58 C-31.33 57.34 -31.66 56.68 -32 56 C-31.33613281 55.69707031 -30.67226562 55.39414062 -29.98828125 55.08203125 C-29.10527344 54.66308594 -28.22226563 54.24414062 -27.3125 53.8125 C-26.44238281 53.40644531 -25.57226562 53.00039063 -24.67578125 52.58203125 C-18.7326299 49.06819724 -16.08544887 44.79480104 -13.8125 38.4375 C-13.53204834 37.68678223 -13.25159668 36.93606445 -12.96264648 36.16259766 C-11.95671534 33.44811218 -10.97709499 30.72499955 -10 28 C-9.57396484 26.81905762 -9.14792969 25.63811523 -8.70898438 24.42138672 C-5.77723512 16.2910583 -2.87817448 8.14945741 0 0 Z " fill="#CF65C1" transform="translate(130,223)"/>
<path d="M0 0 C6 6 6 6 6 10 C4.75294184 14.18131264 3.81024636 16.41072992 0.25 19 C-3.77363588 20.23804181 -5.9703191 20.24553773 -10 19 C-13.15929874 16.10957775 -14.7685607 14.23434295 -15.5625 10 C-14.84011419 6.14727567 -13.51724081 3.99347556 -11 1 C-7.14842887 -1.33121411 -4.253072 -1.41769067 0 0 Z " fill="#CC6BBC" transform="translate(387,195)"/>
<path d="M0 0 C3.1034648 3.02179468 4.89300707 5.61329001 5 10 C3.75806465 13.4498204 2.55965572 15.50430494 -0.1875 17.9375 C-4.06175442 19.40110722 -7.05888184 19.18728246 -11 18 C-13.60865509 16.3277852 -14.63837061 15.10852409 -15.59765625 12.16796875 C-16.37846865 8.20326112 -16.16874402 6.35046835 -14.375 2.625 C-9.73027474 -2.5086437 -6.35143275 -2.6560537 0 0 Z " fill="#CD6DBE" transform="translate(302,196)"/>
<path d="M0 0 C4.72254335 1.49132948 4.72254335 1.49132948 6.125 4.0625 C6.41375 4.701875 6.7025 5.34125 7 6 C7.99 6.33 8.98 6.66 10 7 C12.84143117 12.07398424 13.5486229 15.2184745 12 21 C10.96587387 23.94960977 10.00582947 25.42842376 8 28 C5.19560126 28.9062015 2.99526114 28.95007898 0 29 C-0.33 26.36 -0.66 23.72 -1 21 C-1.99 20.67 -2.98 20.34 -4 20 C-3.88637738 18.5199159 -3.75877092 17.04089926 -3.625 15.5625 C-3.55539063 14.73878906 -3.48578125 13.91507812 -3.4140625 13.06640625 C-3.27742187 12.38449219 -3.14078125 11.70257813 -3 11 C-2.34 10.67 -1.68 10.34 -1 10 C-0.53248212 7.64400765 -0.53248212 7.64400765 -0.375 4.9375 C-0.30023438 4.01839844 -0.22546875 3.09929687 -0.1484375 2.15234375 C-0.09945312 1.44207031 -0.05046875 0.73179687 0 0 Z " fill="#D168C2" transform="translate(209,248)"/>
<path d="M0 0 C6.15234375 -0.09765625 6.15234375 -0.09765625 8 0 C9 1 9 1 9.11352539 3.50024414 C9.10828857 4.58426514 9.10305176 5.66828613 9.09765625 6.78515625 C9.09443359 7.95498047 9.09121094 9.12480469 9.08789062 10.33007812 C9.07951172 11.56177734 9.07113281 12.79347656 9.0625 14.0625 C9.05798828 15.29806641 9.05347656 16.53363281 9.04882812 17.80664062 C9.03699608 20.87114117 9.02051173 23.93554721 9 27 C9.99 26.34 10.98 25.68 12 25 C18.36331971 23.32600696 26.72457738 22.45133748 32.75 25.5 C33.4925 25.995 34.235 26.49 35 27 C31.86650268 28.04449911 31.01031744 27.93423645 28 27 C28.20625 27.94875 28.4125 28.8975 28.625 29.875 C28.74875 30.90625 28.8725 31.9375 29 33 C28.34 33.66 27.68 34.32 27 35 C26.67 34.34 26.34 33.68 26 33 C26.33 32.01 26.66 31.02 27 30 C23.88899273 27.92599515 23.21287309 27.745524 19.6875 27.8125 C18.94886719 27.81894531 18.21023438 27.82539063 17.44921875 27.83203125 C14.59032985 28.0280954 11.82275866 28.51465302 9 29 C9.04164615 36.17205358 9.11395015 43.34332971 9.20751953 50.51489258 C9.23573547 52.95427428 9.25694685 55.39374752 9.27099609 57.83325195 C9.2924161 61.34113448 9.33906435 64.84791571 9.390625 68.35546875 C9.39185364 69.44522507 9.39308228 70.53498138 9.39434814 71.65776062 C9.48193195 77.77317864 9.48193195 77.77317864 12.03808594 83.2277832 C12.68551758 83.81261475 13.33294922 84.39744629 14 85 C13 86 13 86 11.14233398 86.11352539 C9.95619507 86.10567017 9.95619507 86.10567017 8.74609375 86.09765625 C7.89208984 86.09443359 7.03808594 86.09121094 6.15820312 86.08789062 C5.26037109 86.07951172 4.36253906 86.07113281 3.4375 86.0625 C2.53580078 86.05798828 1.63410156 86.05347656 0.70507812 86.04882812 C-1.53001314 86.03700225 -3.76497437 86.0205222 -6 86 C-6 85.34 -6 84.68 -6 84 C-5.22914063 84.01160156 -4.45828125 84.02320313 -3.6640625 84.03515625 C-2.15972656 84.04869141 -2.15972656 84.04869141 -0.625 84.0625 C0.37273437 84.07410156 1.37046875 84.08570313 2.3984375 84.09765625 C4.98432453 84.18006602 4.98432453 84.18006602 7 83 C7 56.6 7 30.2 7 3 C4.69 2.34 2.38 1.68 0 1 C0 0.67 0 0.34 0 0 Z " fill="#B977AD" transform="translate(238,195)"/>
<path d="M0 0 C2.50849662 2.91942077 3.37687225 4.70855759 3.41650391 8.55322266 C3.44135361 9.89448715 3.44135361 9.89448715 3.46670532 11.2628479 C3.46995819 12.22024872 3.47321106 13.17764954 3.4765625 14.1640625 C3.49214203 15.15248138 3.50772156 16.14090027 3.52377319 17.15927124 C3.57128382 20.31450628 3.59905665 23.46952012 3.625 26.625 C3.66147153 29.78746544 3.70206356 32.949805 3.74765015 36.1121521 C3.77490674 38.07970832 3.79624495 40.0473569 3.81118774 42.01504517 C3.82144989 42.90291718 3.83171204 43.79078918 3.84228516 44.70556641 C3.85202866 45.87993759 3.85202866 45.87993759 3.86196899 47.07803345 C3.88307219 49.08447282 3.88307219 49.08447282 5 51 C5.804375 50.979375 6.60875 50.95875 7.4375 50.9375 C10 51 10 51 11 52 C12.41570123 52.08651611 13.835595 52.10704904 15.25390625 52.09765625 C16.10791016 52.09443359 16.96191406 52.09121094 17.84179688 52.08789062 C18.73962891 52.07951172 19.63746094 52.07113281 20.5625 52.0625 C21.46419922 52.05798828 22.36589844 52.05347656 23.29492188 52.04882812 C25.53001314 52.03700225 27.76497437 52.0205222 30 52 C30.33 50.68 30.66 49.36 31 48 C31.33 48.99 31.66 49.98 32 51 C33.49985609 52.66710346 33.49985609 52.66710346 35 54 C34 55 34 55 31.82969666 55.12025452 C30.87261307 55.11803391 29.91552948 55.11581329 28.92944336 55.11352539 C27.84839828 55.11344986 26.76735321 55.11337433 25.65354919 55.11329651 C23.889515 55.10555458 23.889515 55.10555458 22.08984375 55.09765625 C20.89267227 55.0962413 19.69550079 55.09482635 18.46205139 55.09336853 C14.62050934 55.08774979 10.77902457 55.07519411 6.9375 55.0625 C4.34049563 55.05748741 1.74349035 55.05292409 -0.85351562 55.04882812 C-7.23569679 55.03777427 -13.6178443 55.02101792 -20 55 C-20 54.01 -20 53.02 -20 52 C-19.42926758 52.16298584 -18.85853516 52.32597168 -18.27050781 52.49389648 C-15.98346733 53.00368519 -14.01035544 53.11435968 -11.671875 53.09765625 C-10.87265625 53.09443359 -10.0734375 53.09121094 -9.25 53.08789062 C-8.0125 53.07532227 -8.0125 53.07532227 -6.75 53.0625 C-5.90953125 53.05798828 -5.0690625 53.05347656 -4.203125 53.04882812 C-2.13538599 53.03707961 -0.06768376 53.01914522 2 53 C1.6695166 52.21608887 1.3390332 51.43217773 0.99853516 50.62451172 C-0.28504008 45.96535328 -0.14645551 41.80759556 0.0234375 37.0078125 C0.04846344 36.06187225 0.07348938 35.11593201 0.09927368 34.1413269 C0.18110313 31.13549982 0.27783546 28.13036657 0.375 25.125 C0.43327744 23.08075703 0.49057988 21.03648602 0.546875 18.9921875 C0.68662668 13.99439636 0.83974078 8.99717388 1 4 C0.34 3.67 -0.32 3.34 -1 3 C-0.67 2.01 -0.34 1.02 0 0 Z " fill="#C174B2" transform="translate(362,226)"/>
<path d="M0 0 C3.17228174 2.75850587 3.85381142 5.0121511 4.15821838 9.15142822 C4.17376266 9.92420105 4.18930695 10.69697388 4.20532227 11.49316406 C4.22526749 12.37377502 4.24521271 13.25438599 4.26576233 14.16168213 C4.28247482 15.10348328 4.29918732 16.04528442 4.31640625 17.015625 C4.33718735 17.98659119 4.35796844 18.95755737 4.37937927 19.95794678 C4.44468862 23.05522685 4.50367323 26.15259068 4.5625 29.25 C4.60570292 31.35157111 4.64931778 33.4531338 4.69335938 35.5546875 C4.80035098 40.70303948 4.9016709 45.85147558 5 51 C8.80639536 53.09666123 11.59882857 54.3779449 15.9609375 54.29296875 C16.84394531 54.28330078 17.72695313 54.27363281 18.63671875 54.26367188 C19.99216797 54.2259668 19.99216797 54.2259668 21.375 54.1875 C22.76525391 54.16719727 22.76525391 54.16719727 24.18359375 54.14648438 C26.45633998 54.11133881 28.72785847 54.06214132 31 54 C31 52.68 31 51.36 31 50 C31.66 50.66 32.32 51.32 33 52 C35.06874034 52.6425235 35.06874034 52.6425235 37 53 C37 53.66 37 54.32 37 55 C38.01513672 54.75056641 38.01513672 54.75056641 39.05078125 54.49609375 C43.66901154 53.71925236 48.24948173 54.03794455 52.91796875 54.16015625 C56.1070584 54.33924764 56.1070584 54.33924764 58 52 C57.67 51.67 57.34 51.34 57 51 C56.91330568 49.5112814 56.89296506 48.018555 56.90234375 46.52734375 C56.90556641 45.62822266 56.90878906 44.72910156 56.91210938 43.80273438 C56.92467773 42.38444336 56.92467773 42.38444336 56.9375 40.9375 C56.94201172 39.98810547 56.94652344 39.03871094 56.95117188 38.06054688 C56.9629989 35.70696935 56.97947975 33.35351523 57 31 C57.33 31 57.66 31 58 31 C58.06058594 32.25296875 58.12117188 33.5059375 58.18359375 34.796875 C58.26802256 36.44792724 58.35266939 38.09896835 58.4375 39.75 C58.47681641 40.575 58.51613281 41.4 58.55664062 42.25 C58.59853516 43.04921875 58.64042969 43.8484375 58.68359375 44.671875 C58.73858032 45.77160645 58.73858032 45.77160645 58.79467773 46.89355469 C59.00649857 49.06667026 59.23595717 50.94951577 60 53 C61.485 53.495 61.485 53.495 63 54 C62.505 54.99 62.505 54.99 62 56 C40.22 56 18.44 56 -4 56 C-1.64046906 53.64046906 -0.22104383 53.50858587 3 53 C2.90724581 46.73753269 2.79988055 40.47543486 2.68261719 34.21337891 C2.64446357 32.0855062 2.60958754 29.957572 2.578125 27.82958984 C2.53217768 24.76117045 2.47423312 21.69316953 2.4140625 18.625 C2.40251129 17.68197021 2.39096008 16.73894043 2.37905884 15.76733398 C2.25622776 10.201648 1.56171773 5.34819825 0 0 Z " fill="#BE74AF" transform="translate(275,225)"/>
<path d="M0 0 C3.45830634 1.99813255 4.73922801 3.16552962 5.9375 7 C6.0027414 10.13158696 5.8013814 11.47806604 4 14 C0.24952518 16.50031654 -1.55856266 16.53603554 -6 16 C-9 13.9375 -9 13.9375 -11 11 C-11.07003547 7.00797809 -10.58571574 4.84603384 -8.3125 1.5625 C-5.24421404 -0.51066619 -3.64026866 -0.59432958 0 0 Z " fill="#D068C1" transform="translate(407,265)"/>
<path d="M0 0 C-2.76223278 2.76223278 -5.20706617 2.57856291 -9 3 C-9 3.66 -9 4.32 -9 5 C-8.34 5 -7.68 5 -7 5 C-7.16331314 5.84629471 -7.32662628 6.69258942 -7.49488831 7.56452942 C-8.01404442 11.09552185 -8.10625354 14.39998389 -8.08178711 17.9675293 C-8.07872055 18.63658295 -8.07565399 19.3056366 -8.07249451 19.9949646 C-8.06538027 21.43705657 -8.05601211 22.87913887 -8.04459953 24.32120323 C-8.02711987 26.60344971 -8.01688299 28.88562538 -8.00868225 31.16792297 C-7.98429819 37.65311361 -7.9485261 44.13820785 -7.90405273 50.62329102 C-7.87729562 54.59833464 -7.86023897 58.57332414 -7.84918404 62.54844093 C-7.84297394 64.06154201 -7.83296821 65.57463242 -7.81910515 67.08768272 C-7.79992143 69.19874379 -7.79299816 71.30951791 -7.78881836 73.4206543 C-7.77763222 75.22218208 -7.77763222 75.22218208 -7.76622009 77.06010437 C-8 80 -8 80 -10 83 C-8.68 83.33 -7.36 83.66 -6 84 C-6 84.33 -6 84.66 -6 85 C-8.31 85 -10.62 85 -13 85 C-13 82 -13 82 -11 80 C-10.67777082 76.82979521 -10.67777082 76.82979521 -10.70947266 73.04345703 C-10.70275543 72.32782593 -10.69603821 71.61219482 -10.68911743 70.87487793 C-10.67007583 68.50245269 -10.66621005 66.13030946 -10.6640625 63.7578125 C-10.65763833 62.11115399 -10.65091026 60.46449665 -10.64389038 58.81784058 C-10.63190185 55.3627457 -10.62821112 51.90775093 -10.62939453 48.45263672 C-10.6295977 44.02486204 -10.60230568 39.59772941 -10.56785011 35.17010689 C-10.54561224 31.76774142 -10.54155604 28.36553114 -10.54261398 24.96310043 C-10.54025293 23.33080713 -10.53140105 21.69850987 -10.51594925 20.06628799 C-10.49635317 17.78217917 -10.50210104 15.49946327 -10.51416016 13.21533203 C-10.5098851 11.26580124 -10.5098851 11.26580124 -10.50552368 9.27688599 C-11.07636583 5.49392499 -12.04122112 4.32696514 -15 2 C-11.83593133 -1.16406867 -4.17570709 -0.08521851 0 0 Z " fill="#C675B8" transform="translate(237,196)"/>
<path d="M0 0 C0.33 0 0.66 0 1 0 C1 2.97 1 5.94 1 9 C0.34 9 -0.32 9 -1 9 C-1.38285156 10.65515625 -1.38285156 10.65515625 -1.7734375 12.34375 C-3.06554438 17.51217752 -4.83269499 22.48737461 -6.625 27.5 C-6.94984375 28.4178125 -7.2746875 29.335625 -7.609375 30.28125 C-8.40298026 32.52201779 -9.19991079 34.76154098 -10 37 C-9.40106934 36.9292627 -8.80213867 36.85852539 -8.18505859 36.78564453 C-7.38922363 36.69395996 -6.59338867 36.60227539 -5.7734375 36.5078125 C-4.596604 36.37076904 -4.596604 36.37076904 -3.39599609 36.23095703 C1.20633332 35.78732512 5.56584362 35.52194787 10 37 C10 36.34 10 35.68 10 35 C10.66 35 11.32 35 12 35 C15.13902852 41.80122845 15.33452052 47.56621057 15 55 C14.01 54.67 13.02 54.34 12 54 C12.33 53.67 12.66 53.34 13 53 C13.30339739 47.84224445 12.69688668 45.09066003 11 40 C-0.385 39.505 -0.385 39.505 -12 39 C-12.495 41.475 -12.495 41.475 -13 44 C-14.2704964 46.04049422 -15.59431196 48.05017465 -17 50 C-17.66 49.67 -18.32 49.34 -19 49 C-18.72389893 48.51160645 -18.44779785 48.02321289 -18.16333008 47.52001953 C-13.29592542 38.392035 -10.11491854 28.60546492 -6.6875 18.875 C-6.03639194 17.04145895 -5.38470403 15.2081237 -4.73242188 13.375 C-3.14824959 8.91901239 -1.5719614 4.46030918 0 0 Z " fill="#BF78B9" transform="translate(130,223)"/>
<path d="M0 0 C1.15757812 0.19078125 2.31515625 0.3815625 3.5078125 0.578125 C4.57773438 0.75859375 5.64765625 0.9390625 6.75 1.125 C10.10726508 1.64850574 13.34233776 2.125 16.75 2.125 C18.40497356 5.43494713 17.85084335 9.11623 17.8125 12.75 C17.80798828 13.55179688 17.80347656 14.35359375 17.79882812 15.1796875 C17.78703168 17.16149006 17.76909605 19.14325433 17.75 21.125 C16.76 21.125 15.77 21.125 14.75 21.125 C14.51925781 20.47273438 14.28851563 19.82046875 14.05078125 19.1484375 C11.97972719 13.59834005 10.21904697 9.0974862 5.75 5.125 C1.77483418 3.68075986 -2.0333983 3.125 -6.25 3.125 C-6.25 2.465 -6.25 1.805 -6.25 1.125 C-7.24 0.795 -8.23 0.465 -9.25 0.125 C-5.669036 -1.06865467 -3.70158629 -0.62840884 0 0 Z " fill="#CD6ABD" transform="translate(202.25,218.875)"/>
<path d="M0 0 C0.33 0.66 0.66 1.32 1 2 C-4.75 1.125 -4.75 1.125 -7 0 C-7.33 2.97 -7.66 5.94 -8 9 C-9.32 9.33 -10.64 9.66 -12 10 C-11.2575 8.8553125 -11.2575 8.8553125 -10.5 7.6875 C-8.75631692 5.07636249 -8.75631692 5.07636249 -9 2 C-11.75510385 1.08163205 -13.52316188 0.83683309 -16.375 0.8125 C-17.12523437 0.79832031 -17.87546875 0.78414062 -18.6484375 0.76953125 C-21.52760912 0.94128876 -21.52760912 0.94128876 -26 3 C-26.33 7.95 -26.66 12.9 -27 18 C-27.33 18 -27.66 18 -28 18 C-28.0809313 15.39521117 -28.14045434 12.79293347 -28.1875 10.1875 C-28.22520508 9.08051758 -28.22520508 9.08051758 -28.26367188 7.95117188 C-28.33791903 2.48163172 -28.33791903 2.48163172 -26.640625 0.0625 C-18.87872216 -4.96425613 -7.84473422 -4.5325131 0 0 Z " fill="#C370B5" transform="translate(360,222)"/>
<path d="M0 0 C0.66 0 1.32 0 2 0 C4.125 4.625 4.125 4.625 3 8 C6.465 7.505 6.465 7.505 10 7 C6.14159425 11.45776974 0.56129924 12.43874458 -5.08203125 13.328125 C-10.91134549 13.66055025 -15.78383063 11.39430725 -21 9 C-19.68 8.67 -18.36 8.34 -17 8 C-17 7.01 -17 6.02 -17 5 C-16.34 5 -15.68 5 -15 5 C-14.67 5.99 -14.34 6.98 -14 8 C-11.67313547 9.16343227 -10.15278587 9.19895988 -7.5625 9.25 C-6.38880859 9.28867187 -6.38880859 9.28867187 -5.19140625 9.328125 C-2.93249327 9.16560831 -2.93249327 9.16560831 -1.2265625 7.68359375 C0.59705814 5.18047116 0.20023449 3.00351741 0 0 Z " fill="#B47FAF" transform="translate(206,269)"/>
<path d="M0 0 C2.40461111 2.40461111 2.77058204 4.20284331 3.75 7.4375 C5.35250027 12.11673465 5.35250027 12.11673465 9.25 15.1875 C10.1575 15.455625 11.065 15.72375 12 16 C11.67 16.66 11.34 17.32 11 18 C-1.21 18 -13.42 18 -26 18 C-26.33 17.34 -26.66 16.68 -27 16 C-11.655 15.505 -11.655 15.505 4 15 C3.34 13.68 2.68 12.36 2 11 C2 9.68 2 8.36 2 7 C1.34 6.67 0.68 6.34 0 6 C0 4.02 0 2.04 0 0 Z " fill="#BC71AE" transform="translate(165,263)"/>
<path d="M0 0 C0.33 0 0.66 0 1 0 C1 17.16 1 34.32 1 52 C2.65 52.33 4.3 52.66 6 53 C6 53.99 6 54.98 6 56 C-0.27 56 -6.54 56 -13 56 C-13 55.34 -13 54.68 -13 54 C-11.84371094 54.01740234 -11.84371094 54.01740234 -10.6640625 54.03515625 C-9.15972656 54.04869141 -9.15972656 54.04869141 -7.625 54.0625 C-6.12839844 54.07990234 -6.12839844 54.07990234 -4.6015625 54.09765625 C-2.01567547 54.18006602 -2.01567547 54.18006602 0 53 C0 35.51 0 18.02 0 0 Z " fill="#C96FBA" transform="translate(245,225)"/>
<path d="M0 0 C1 3 1 3 1 5 C2.97986082 4.88652381 4.95891598 4.7589065 6.9375 4.625 C8.59072266 4.52058594 8.59072266 4.52058594 10.27734375 4.4140625 C11.17582031 4.27742188 12.07429688 4.14078125 13 4 C13.33 3.34 13.66 2.68 14 2 C16.64 2.99 19.28 3.98 22 5 C21.01 6.485 21.01 6.485 20 8 C17.11083984 8.2487793 17.11083984 8.2487793 13.4609375 8.07421875 C12.15898438 8.01943359 10.85703125 7.96464844 9.515625 7.90820312 C8.13539916 7.83496465 6.75519098 7.76139261 5.375 7.6875 C3.98704234 7.62424925 2.59902084 7.5623829 1.2109375 7.50195312 C-2.19358245 7.34827688 -5.59680622 7.18036232 -9 7 C-9.33 6.34 -9.66 5.68 -10 5 C-6.7 3.35 -3.4 1.7 0 0 Z " fill="#BF76B2" transform="translate(108,274)"/>
<path d="M0 0 C0.33 0 0.66 0 1 0 C1 2.97 1 5.94 1 9 C0.34 9 -0.32 9 -1 9 C-1.26941406 10.13695312 -1.53882813 11.27390625 -1.81640625 12.4453125 C-2.95961096 17.00807676 -4.391208 21.43476603 -5.9375 25.875 C-6.18951172 26.63296875 -6.44152344 27.3909375 -6.70117188 28.171875 C-8.64661861 33.7644124 -8.64661861 33.7644124 -12 36 C-9.91241244 27.74816978 -7.2459577 19.79880349 -4.3125 11.8125 C-3.68891602 10.09836914 -3.68891602 10.09836914 -3.05273438 8.34960938 C-2.03907179 5.56495009 -1.02143976 2.78181383 0 0 Z " fill="#B277AA" transform="translate(130,223)"/>
<path d="M0 0 C0 3 0 3 -1 5 C-1.06265749 7.79770376 -1.06690696 10.57058619 -1.02734375 13.3671875 C-1.01469549 15.07421671 -1.00233468 16.78124807 -0.99023438 18.48828125 C-0.9654227 21.18317325 -0.93746337 23.87795427 -0.90405273 26.57275391 C-0.8738306 29.17090563 -0.85606744 31.76891594 -0.83984375 34.3671875 C-0.82638412 35.17147186 -0.8129245 35.97575623 -0.79905701 36.80441284 C-0.78169513 40.67903555 -0.77878845 43.72323366 -3 47 C-1.68 47.99 -0.36 48.98 1 50 C-1.64 50 -4.28 50 -7 50 C-7 49.01 -7 48.02 -7 47 C-6.01 46.34 -5.02 45.68 -4 45 C-3.69915123 41.92928088 -3.58312569 39.0498581 -3.59375 35.9765625 C-3.58291382 35.07884125 -3.57207764 34.18112 -3.56091309 33.25619507 C-3.52655249 30.37905713 -3.51104075 27.50231645 -3.5 24.625 C-3.4854458 20.84597084 -3.45176561 17.06783141 -3.40625 13.2890625 C-3.40927124 12.4191568 -3.41229248 11.5492511 -3.41540527 10.65298462 C-3.33991701 4.57505167 -3.33991701 4.57505167 -1.47460938 1.41943359 C-0.98798828 0.95102051 -0.50136719 0.48260742 0 0 Z " fill="#B371A8" transform="translate(262,231)"/>
<path d="M0 0 C3.08914085 0.33097938 4.0026931 1.00284699 6.1875 3.3125 C8.92258749 7.36797455 8.92258749 7.36797455 9 10 C7.75 13.6875 7.75 13.6875 6 17 C5.01 17.33 4.02 17.66 3 18 C3.33 16.9275 3.66 15.855 4 14.75 C5.1717751 11.00268399 5.1717751 11.00268399 5 7 C4.34 8.32 3.68 9.64 3 11 C2.67 11 2.34 11 2 11 C2 7.7 2 4.4 2 1 C1.34 0.67 0.68 0.34 0 0 Z " fill="#C274B4" transform="translate(384,195)"/>
<path d="M0 0 C-2.76223278 2.76223278 -5.20706617 2.57856291 -9 3 C-9 3.66 -9 4.32 -9 5 C-8.34 5 -7.68 5 -7 5 C-7.15339844 5.52078125 -7.30679688 6.0415625 -7.46484375 6.578125 C-8.13982511 9.63278515 -8.34411118 12.63015971 -8.5625 15.75 C-8.64628906 16.92046875 -8.73007813 18.0909375 -8.81640625 19.296875 C-8.87699219 20.18890625 -8.93757812 21.0809375 -9 22 C-9.33 22 -9.66 22 -10 22 C-10.02578125 20.89140625 -10.0515625 19.7828125 -10.078125 18.640625 C-10.13441656 17.17704453 -10.19176367 15.71350438 -10.25 14.25 C-10.26417969 13.52039063 -10.27835938 12.79078125 -10.29296875 12.0390625 C-10.45955152 8.37424151 -10.69935965 6.36948928 -13.046875 3.484375 C-13.69140625 2.99453125 -14.3359375 2.5046875 -15 2 C-11.83593133 -1.16406867 -4.17570709 -0.08521851 0 0 Z " fill="#B56CAD" transform="translate(237,196)"/>
<path d="M0 0 C1.15757812 0.19078125 2.31515625 0.3815625 3.5078125 0.578125 C4.57773438 0.75859375 5.64765625 0.9390625 6.75 1.125 C10.10726508 1.64850574 13.34233776 2.125 16.75 2.125 C16.75 2.785 16.75 3.445 16.75 4.125 C10.35062955 5.01014657 4.8890853 5.33640052 -1.375 3.59765625 C-3.41255651 3.00278177 -3.41255651 3.00278177 -6.25 3.125 C-6.25 2.465 -6.25 1.805 -6.25 1.125 C-7.24 0.795 -8.23 0.465 -9.25 0.125 C-5.669036 -1.06865467 -3.70158629 -0.62840884 0 0 Z " fill="#BC7DAF" transform="translate(202.25,218.875)"/>
<path d="M0 0 C5.4282701 4.16269027 10.18817723 8.21275644 11.37890625 15.234375 C11.65879238 20.61541162 10.57433448 23.79490061 7 28 C6.34 28.33 5.68 28.66 5 29 C6.80412371 23.32989691 6.80412371 23.32989691 8.1875 21 C9.36939559 18.09071856 8.67814802 16.02084116 8 13 C7.814375 12.05125 7.62875 11.1025 7.4375 10.125 C7.293125 9.42375 7.14875 8.7225 7 8 C6.38125 7.9175 5.7625 7.835 5.125 7.75 C3 7 3 7 1.8125 5.125 C1.16535941 3.43247845 0.57301136 1.71903407 0 0 Z " fill="#BE74B2" transform="translate(212,247)"/>
<path d="M0 0 C0.99 0.33 1.98 0.66 3 1 C2.7525 2.03125 2.505 3.0625 2.25 4.125 C1.93471081 9.01198242 3.00563183 10.19945578 6 14 C8.13775874 15.95523428 10.40878732 17.6718321 12.75 19.375 C13.35199219 19.82488281 13.95398438 20.27476562 14.57421875 20.73828125 C16.04310508 21.83411708 17.52067512 22.91829713 19 24 C18.01 24.33 17.02 24.66 16 25 C15.34 24.34 14.68 23.68 14 23 C11.93125966 22.3574765 11.93125966 22.3574765 10 22 C10 21.01 10 20.02 10 19 C9.443125 18.7525 8.88625 18.505 8.3125 18.25 C1.5579022 14.59886605 1.5579022 14.59886605 0.359375 11.1640625 C-0.03042059 8.81681516 -0.09747278 6.62814911 -0.0625 4.25 C-0.05347656 3.45078125 -0.04445312 2.6515625 -0.03515625 1.828125 C-0.02355469 1.22484375 -0.01195312 0.6215625 0 0 Z " fill="#BF75B2" transform="translate(193,222)"/>
<path d="M0 0 C2.48319402 2.48319402 2.26011201 3.96666047 2.2734375 7.36132812 C2.26570312 8.04646484 2.25796875 8.73160156 2.25 9.4375 C2.25773438 10.11876953 2.26546875 10.80003906 2.2734375 11.50195312 C2.25889434 15.21409442 2.10940418 16.83589372 0 20 C1.32 20.33 2.64 20.66 4 21 C4 21.33 4 21.66 4 22 C1.69 22 -0.62 22 -3 22 C-3 19 -3 19 -1 17 C-0.69324768 14.10032243 -0.48826629 11.28216822 -0.375 8.375 C-0.33632812 7.57320313 -0.29765625 6.77140625 -0.2578125 5.9453125 C-0.16346069 3.96392444 -0.08063785 1.98199355 0 0 Z " fill="#BC75B1" transform="translate(227,259)"/>
<path d="M0 0 C3.67176009 -0.34155908 5.58028931 -0.24249951 8.8125 1.625 C11.46587009 4.50580182 11.91901526 6.1127327 12 10 C10.87981101 13.36056696 10.05465901 13.96356066 7 16 C3.4375 16.25 3.4375 16.25 0 16 C-0.66 15.34 -1.32 14.68 -2 14 C0.97851562 13.70703125 0.97851562 13.70703125 3.95703125 13.4140625 C6.29988142 13.07334609 6.29988142 13.07334609 9 11 C9.73343428 7.93443402 9.73343428 7.93443402 10 5 C9.34 5 8.68 5 8 5 C7.566875 4.525625 7.13375 4.05125 6.6875 3.5625 C4.55306267 1.58616914 2.83692053 1.38336764 0 1 C0 0.67 0 0.34 0 0 Z " fill="#BE7BB0" transform="translate(401,265)"/>
<path d="M0 0 C3.375 -0.4375 3.375 -0.4375 7 0 C9.4375 2 9.4375 2 11 4 C10.67 4.66 10.34 5.32 10 6 C9.01 5.67 8.02 5.34 7 5 C6.67 4.34 6.34 3.68 6 3 C2.99615946 3.6954344 2.99615946 3.6954344 0 5 C-1.4389687 7.87793741 -0.96203259 10.00700971 0 13 C-1.5625 11.9375 -1.5625 11.9375 -3 10 C-2.77589301 5.81666944 -2.3385104 3.50776561 0 0 Z " fill="#D069C1" transform="translate(399,266)"/>
<path d="M0 0 C0.66 0 1.32 0 2 0 C4.125 4.625 4.125 4.625 3 8 C6.465 7.505 6.465 7.505 10 7 C7.33878086 10.44393065 4.13551317 11.09770622 0 12 C-0.66 11.67 -1.32 11.34 -2 11 C-1.125 7.125 -1.125 7.125 0 6 C0.04080783 4.00041636 0.04254356 1.99954746 0 0 Z " fill="#C76DB7" transform="translate(206,269)"/>
<path d="M0 0 C1.22589844 0.15275391 1.22589844 0.15275391 2.4765625 0.30859375 C3.41628906 0.43427734 3.41628906 0.43427734 4.375 0.5625 C4.375 0.8925 4.375 1.2225 4.375 1.5625 C2.065 1.8925 -0.245 2.2225 -2.625 2.5625 C-3.285 4.2125 -3.945 5.8625 -4.625 7.5625 C-4.955 6.5725 -5.285 5.5825 -5.625 4.5625 C-6.615 4.5625 -7.605 4.5625 -8.625 4.5625 C-8.955 6.5425 -9.285 8.5225 -9.625 10.5625 C-10.285 10.5625 -10.945 10.5625 -11.625 10.5625 C-11.12197411 6.16102343 -9.60054199 3.80854581 -6.625 0.5625 C-4.10446405 -0.69776798 -2.7707902 -0.35624445 0 0 Z " fill="#C172B4" transform="translate(187.625,255.4375)"/>
<path d="M0 0 C1.32 0.66 2.64 1.32 4 2 C3.67 2.66 3.34 3.32 3 4 C-3.27 4 -9.54 4 -16 4 C-16 3.34 -16 2.68 -16 2 C-10.72 2 -5.44 2 0 2 C0 1.34 0 0.68 0 0 Z " fill="#BC71AD" transform="translate(248,277)"/>
<path d="M0 0 C-3.4019487 2.09350689 -6.05272412 2.17942163 -10 2 C-10.66 3.32 -11.32 4.64 -12 6 C-14.475 5.01 -14.475 5.01 -17 4 C-16.67 3.01 -16.34 2.02 -16 1 C-10.65097076 0.40801257 -5.39115154 -0.14187241 0 0 Z " fill="#C277B5" transform="translate(385,221)"/>
<path d="M0 0 C0.66 0 1.32 0 2 0 C3.17192435 3.12305373 4.33663876 6.24874739 5.5 9.375 C5.83386719 10.26445312 6.16773438 11.15390625 6.51171875 12.0703125 C6.82753906 12.92109375 7.14335937 13.771875 7.46875 14.6484375 C7.76201172 15.43395996 8.05527344 16.21948242 8.35742188 17.02880859 C9 19 9 19 9 21 C8.34 21 7.68 21 7 21 C6.01602415 18.4392555 5.03770033 15.87658508 4.0625 13.3125 C3.78470703 12.59126953 3.50691406 11.87003906 3.22070312 11.12695312 C1.82233426 7.43728107 0.61063996 3.91891718 0 0 Z " fill="#C179B3" transform="translate(152,229)"/>
<path d="M0 0 C0.66 0.33 1.32 0.66 2 1 C2 1.99 2 2.98 2 4 C1.525625 4.45375 1.05125 4.9075 0.5625 5.375 C-1.4670405 7.48572212 -1.45767493 9.15279338 -2 12 C-3.5625 14.8125 -3.5625 14.8125 -5 17 C-6.26916725 13.19249826 -5.47776092 11.6897429 -4.1875 7.9375 C-3.83042969 6.87402344 -3.47335938 5.81054688 -3.10546875 4.71484375 C-2 2 -2 2 0 0 Z " fill="#BF75AF" transform="translate(141,195)"/>
<path d="M0 0 C0 0.66 0 1.32 0 2 C-3.465 3.485 -3.465 3.485 -7 5 C-7.33 9.95 -7.66 14.9 -8 20 C-8.33 20 -8.66 20 -9 20 C-9.0809313 17.39521117 -9.14045434 14.79293347 -9.1875 12.1875 C-9.22520508 11.08051758 -9.22520508 11.08051758 -9.26367188 9.95117188 C-9.33800749 4.47511476 -9.33800749 4.47511476 -7.61328125 2.05078125 C-4.63908325 0.11359175 -3.83273816 0 0 0 Z " fill="#BB7DAE" transform="translate(341,220)"/>
<path d="M0 0 C0.33 0 0.66 0 1 0 C1 5.61 1 11.22 1 17 C0.01 17 -0.98 17 -2 17 C-2.33 15.02 -2.66 13.04 -3 11 C-2.34 11 -1.68 11 -1 11 C-0.67 7.37 -0.34 3.74 0 0 Z " fill="#B174AB" transform="translate(219,223)"/>
<path d="M0 0 C4 0 4 0 5.5625 1.5 C6.036875 1.995 6.51125 2.49 7 3 C7.99 3 8.98 3 10 3 C10.625 4.875 10.625 4.875 11 7 C10.34 7.66 9.68 8.32 9 9 C7.49704815 7.69088122 5.99770689 6.37761608 4.5 5.0625 C3.6646875 4.33160156 2.829375 3.60070312 1.96875 2.84765625 C1.3190625 2.23792969 0.669375 1.62820313 0 1 C0 0.67 0 0.34 0 0 Z " fill="#C470BA" transform="translate(196,258)"/>
<path d="M0 0 C0.66 0 1.32 0 2 0 C2.33 0.99 2.66 1.98 3 3 C3.99 3.66 4.98 4.32 6 5 C6 5.66 6 6.32 6 7 C1.78087253 6.5205537 -0.79663178 5.83374881 -4 3 C-2.68 3 -1.36 3 0 3 C0 2.01 0 1.02 0 0 Z " fill="#BE78AF" transform="translate(189,274)"/>
<path d="M0 0 C1 3 1 3 1 6 C-2.63 6 -6.26 6 -10 6 C-7.99006295 3.99006295 -6.40788768 3.10059081 -3.875 1.875 C-3.15054688 1.52179688 -2.42609375 1.16859375 -1.6796875 0.8046875 C-1.12539062 0.53914063 -0.57109375 0.27359375 0 0 Z " fill="#BC6DAD" transform="translate(108,274)"/>
<path d="M0 0 C2.00993705 3.01490557 2.72623341 5.2149927 3.625 8.6875 C3.88539063 9.68136719 4.14578125 10.67523438 4.4140625 11.69921875 C4.60742188 12.45847656 4.80078125 13.21773437 5 14 C4.01 13.67 3.02 13.34 2 13 C0.34950283 8.56971812 -0.22973141 4.70949382 0 0 Z " fill="#C575B2" transform="translate(143,199)"/>
<path d="M0 0 C0.33 0 0.66 0 1 0 C1.46733615 4.57989423 1.17261016 7.24854513 -1.5 10.9375 C-2.325 11.948125 -3.15 12.95875 -4 14 C-4.66 13.67 -5.32 13.34 -6 13 C-5.47599609 11.96939453 -5.47599609 11.96939453 -4.94140625 10.91796875 C-4.48636719 10.01691406 -4.03132813 9.11585938 -3.5625 8.1875 C-3.11003906 7.29417969 -2.65757813 6.40085937 -2.19140625 5.48046875 C-0.9168395 2.96000522 -0.9168395 2.96000522 0 0 Z " fill="#B976AA" transform="translate(117,259)"/>
<path d="M0 0 C2.12568191 3.54280318 2.62857754 6.91435293 3 11 C2.67 11.99 2.34 12.98 2 14 C-0.24281523 8.79666866 -1.55577239 5.65735415 0 0 Z " fill="#C072B3" transform="translate(177,229)"/>
<path d="M0 0 C0 3.41099168 -0.49145406 6.63088314 -1 10 C-2.32 10.33 -3.64 10.66 -5 11 C-4.55123384 9.35153231 -4.09069512 7.70626545 -3.625 6.0625 C-3.36976563 5.14597656 -3.11453125 4.22945312 -2.8515625 3.28515625 C-2 1 -2 1 0 0 Z " fill="#C46BB9" transform="translate(136,211)"/>
<path d="M0 0 C2 3 2 3 1.9375 5.9375 C0.78580061 9.69971802 -0.78008163 10.85338775 -4 13 C-4 12.01 -4 11.02 -4 10 C-3.34 10 -2.68 10 -2 10 C-1.34 6.7 -0.68 3.4 0 0 Z " fill="#BE71B1" transform="translate(195,261)"/>
<path d="M0 0 C0.66 0 1.32 0 2 0 C2.99 3.63 3.98 7.26 5 11 C1 9 1 9 0 6 C0 4 0 2 0 0 Z " fill="#C571B4" transform="translate(147,214)"/>
<path d="M0 0 C2.1519437 3.22791555 2.20086443 4.28400809 2 8 C1.34 7.67 0.68 7.34 0 7 C0 6.34 0 5.68 0 5 C-1.32 5.33 -2.64 5.66 -4 6 C-2.84826645 3.53199953 -1.95216435 1.95216435 0 0 Z " fill="#C370B5" transform="translate(182,223)"/>
<path d="M0 0 C-2 2 -2 2 -4.3828125 2.1953125 C-5.28773438 2.17210937 -6.19265625 2.14890625 -7.125 2.125 C-8.49011719 2.09792969 -8.49011719 2.09792969 -9.8828125 2.0703125 C-10.58148438 2.04710937 -11.28015625 2.02390625 -12 2 C-12 2.66 -12 3.32 -12 4 C-12.99 3.67 -13.98 3.34 -15 3 C-14.67 2.34 -14.34 1.68 -14 1 C-9.30643695 0.06128739 -4.77567869 -0.09746283 0 0 Z " fill="#BB84AF" transform="translate(237,196)"/>
<path d="M0 0 C2.8125 -0.1875 2.8125 -0.1875 6 0 C6.99 0.99 7.98 1.98 9 3 C6.03 3 3.06 3 0 3 C0 2.01 0 1.02 0 0 Z " fill="#B087AB" transform="translate(131,259)"/>
<path d="M0 0 C0.99 0.33 1.98 0.66 3 1 C2.67 2.65 2.34 4.3 2 6 C0.68 5.67 -0.64 5.34 -2 5 C-2 2 -2 2 0 0 Z " fill="#D364C8" transform="translate(295,194)"/>
<path d="M0 0 C0.66 0.33 1.32 0.66 2 1 C1.484375 1.680625 0.96875 2.36125 0.4375 3.0625 C-1.39207088 6.80118832 -0.86178872 9.00443413 0 13 C-1.5625 11.9375 -1.5625 11.9375 -3 10 C-2.77589301 5.81666944 -2.3385104 3.50776561 0 0 Z " fill="#BD73B0" transform="translate(399,266)"/>
<path d="M0 0 C2.35953094 2.35953094 2.49141413 3.77895617 3 7 C-0.36591866 5.55746343 -2.51047079 3.66735273 -5 1 C-2.525 1.495 -2.525 1.495 0 2 C0 1.34 0 0.68 0 0 Z " fill="#C172B5" transform="translate(190,248)"/>
<path d="M0 0 C0.66 0.33 1.32 0.66 2 1 C1.45276317 4.37462715 0.9451 6.08235 -1 9 C-1.99 8.67 -2.98 8.34 -4 8 C-3.2884375 7.13375 -3.2884375 7.13375 -2.5625 6.25 C-1.0515133 4.07417916 -0.45963849 2.57397552 0 0 Z " fill="#D469C6" transform="translate(388,201)"/>
<path d="M0 0 C3.84685385 1.24762828 6.02929405 2.3870391 8 6 C7.67 6.99 7.34 7.98 7 9 C6.7525 8.38125 6.505 7.7625 6.25 7.125 C4.77229238 4.61289704 3.56044823 4.23892656 1 3 C0.67 2.01 0.34 1.02 0 0 Z " fill="#C177B2" transform="translate(298,195)"/>
<path d="M0 0 C4.875 1.75 4.875 1.75 6 4 C6.039992 5.99960012 6.04346799 8.00047242 6 10 C4 7 4 7 3 4 C2.01 3.34 1.02 2.68 0 2 C0 1.34 0 0.68 0 0 Z " fill="#BD75B1" transform="translate(309,223)"/>
<path d="M0 0 C1.65 1.65 3.3 3.3 5 5 C4.67 5.66 4.34 6.32 4 7 C2.02 7 0.04 7 -2 7 C-1.34 6.01 -0.68 5.02 0 4 C0 2.68 0 1.36 0 0 Z " fill="#B572A9" transform="translate(392,274)"/>
<path d="M0 0 C0.66 0 1.32 0 2 0 C2.49230769 6.4 2.49230769 6.4 0 9.4375 C-0.99 10.2109375 -0.99 10.2109375 -2 11 C-1.125 7.125 -1.125 7.125 0 6 C0.04080783 4.00041636 0.04254356 1.99954746 0 0 Z " fill="#BD71AE" transform="translate(206,269)"/>
<path d="M0 0 C0.66 0.33 1.32 0.66 2 1 C0.38405168 3.04119788 -1.2856382 5.04072937 -3 7 C-3.66 7 -4.32 7 -5 7 C-3.75023244 3.34683329 -3.32901247 2.21934164 0 0 Z " fill="#BE79B3" transform="translate(292,195)"/>
</svg>
